<?xml version="1.0" encoding="utf-8"?>
<!-- Generator: Adobe Illustrator 24.1.2, SVG Export Plug-In . SVG Version: 6.00 Build 0)  -->
<svg version="1.1" id="Layer_1" xmlns="http://www.w3.org/2000/svg" xmlns:xlink="http://www.w3.org/1999/xlink" x="0px" y="0px"
	 viewBox="0 0 361 247" style="enable-background:new 0 0 361 247;" xml:space="preserve">
<style type="text/css">
	.st0{fill:#FFFFFF;}
	.st1{fill:#0088F0;}
	.st2{fill:#8794BA;}
	.st3{fill:#EF2A82;}
</style>
<g>
	<path class="st0" d="M32.4,0h296.9c17.7,0,32,14.3,32,32v182.6c0,17.7-14.3,32-32,32H32.4c-17.7,0-32-14.3-32-32V32.1
		C0.4,14.4,14.7,0,32.4,0z"/>
</g>
<path class="st1" d="M280.4,76.8l-7,15.7h-2.2l7-15.1H269v-1.8h11.4V76.8z M291,85c-0.4,0.5-1,1-1.6,1.3c-0.6,0.3-1.3,0.5-2,0.5
	c-1,0-1.8-0.2-2.5-0.7c-0.7-0.5-1.3-1.2-1.7-2c-0.4-0.9-0.6-1.8-0.6-2.9c0-1.1,0.2-2.1,0.6-3c0.4-0.9,1-1.6,1.8-2.1
	c0.8-0.5,1.7-0.7,2.8-0.7c1.7,0,3,0.6,3.9,1.9c1,1.2,1.4,2.9,1.4,5.1v0.6c0,3.3-0.6,5.7-1.9,7.2c-1.3,1.5-3.3,2.3-5.9,2.3H285v-1.8
	h0.5c1.8,0,3.1-0.5,4.1-1.4C290.4,88.3,291,86.9,291,85z M287.7,85c0.7,0,1.4-0.2,2-0.7c0.6-0.4,1.1-1,1.3-1.6v-0.9
	c0-1.4-0.3-2.5-0.9-3.4c-0.6-0.9-1.4-1.3-2.3-1.3c-0.9,0-1.7,0.4-2.3,1.1c-0.6,0.7-0.9,1.7-0.9,2.8c0,1.2,0.3,2.1,0.8,2.9
	C286.1,84.6,286.8,85,287.7,85z M296,78.8c0-1,0.3-1.8,1-2.5c0.6-0.7,1.5-1,2.5-1c1,0,1.9,0.3,2.5,1c0.6,0.7,1,1.5,1,2.6v0.8
	c0,1-0.3,1.9-1,2.5c-0.6,0.6-1.5,1-2.5,1c-1,0-1.8-0.3-2.5-1c-0.7-0.6-1-1.5-1-2.6V78.8z M297.6,79.7c0,0.6,0.2,1.1,0.5,1.5
	c0.3,0.4,0.8,0.6,1.4,0.6c0.5,0,1-0.2,1.3-0.6c0.3-0.4,0.5-0.9,0.5-1.6v-0.8c0-0.6-0.2-1.1-0.5-1.5c-0.3-0.4-0.8-0.6-1.4-0.6
	c-0.6,0-1,0.2-1.4,0.6c-0.3,0.4-0.5,0.9-0.5,1.5V79.7z M304.2,88.3c0-1,0.3-1.8,1-2.5c0.6-0.7,1.5-1,2.5-1c1,0,1.8,0.3,2.5,1
	c0.6,0.6,1,1.5,1,2.6v0.8c0,1-0.3,1.8-1,2.5c-0.6,0.6-1.5,1-2.5,1s-1.8-0.3-2.5-1c-0.7-0.6-1-1.5-1-2.6V88.3z M305.8,89.2
	c0,0.6,0.2,1.1,0.5,1.5c0.3,0.4,0.8,0.6,1.4,0.6c0.6,0,1-0.2,1.3-0.6c0.3-0.4,0.5-0.9,0.5-1.6v-0.9c0-0.6-0.2-1.1-0.5-1.5
	c-0.3-0.4-0.8-0.6-1.3-0.6c-0.5,0-1,0.2-1.3,0.6c-0.3,0.4-0.5,0.9-0.5,1.5V89.2z M299.9,91.1l-1.2-0.8l8.2-13.2l1.2,0.8L299.9,91.1z
	"/>
<path class="st2" d="M271.3,107.8c0-0.6,0.1-1.1,0.3-1.5c0.2-0.4,0.5-0.8,0.9-1c0.4-0.2,0.8-0.4,1.3-0.4c0.8,0,1.4,0.3,1.9,0.8
	c0.5,0.5,0.7,1.3,0.7,2.2v0.1c0,0.6-0.1,1.1-0.3,1.5c-0.2,0.4-0.5,0.8-0.9,1c-0.4,0.2-0.8,0.4-1.4,0.4c-0.8,0-1.4-0.3-1.9-0.8
	C271.5,109.5,271.3,108.7,271.3,107.8L271.3,107.8z M272.3,107.9c0,0.6,0.1,1.1,0.4,1.5c0.3,0.4,0.7,0.6,1.2,0.6
	c0.5,0,0.9-0.2,1.2-0.6c0.3-0.4,0.4-0.9,0.4-1.6c0-0.6-0.2-1.1-0.4-1.5c-0.3-0.4-0.7-0.6-1.2-0.6c-0.5,0-0.9,0.2-1.2,0.6
	C272.4,106.6,272.3,107.2,272.3,107.9z M282.5,107.9c0,0.9-0.2,1.6-0.6,2.1c-0.4,0.5-0.9,0.8-1.6,0.8c-0.7,0-1.2-0.2-1.6-0.7v2.8h-1
	V105h0.9l0,0.6c0.4-0.5,1-0.7,1.7-0.7c0.7,0,1.2,0.3,1.6,0.8C282.3,106.2,282.5,106.9,282.5,107.9L282.5,107.9z M281.6,107.8
	c0-0.6-0.1-1.2-0.4-1.5c-0.3-0.4-0.7-0.6-1.1-0.6c-0.6,0-1,0.3-1.3,0.8v2.7c0.3,0.5,0.7,0.8,1.3,0.8c0.5,0,0.8-0.2,1.1-0.6
	C281.4,109.1,281.6,108.5,281.6,107.8z M285.1,103.6v1.4h1.1v0.8h-1.1v3.5c0,0.2,0,0.4,0.1,0.5c0.1,0.1,0.3,0.2,0.5,0.2
	c0.1,0,0.3,0,0.5-0.1v0.8c-0.3,0.1-0.5,0.1-0.8,0.1c-0.4,0-0.8-0.1-1-0.4c-0.2-0.3-0.3-0.6-0.3-1.1v-3.5h-1V105h1v-1.4H285.1z
	 M288.4,110.7h-1V105h1V110.7z M287.3,103.5c0-0.2,0-0.3,0.1-0.4c0.1-0.1,0.2-0.2,0.4-0.2c0.2,0,0.3,0.1,0.4,0.2s0.1,0.2,0.1,0.4
	c0,0.2,0,0.3-0.1,0.4c-0.1,0.1-0.2,0.2-0.4,0.2c-0.2,0-0.3-0.1-0.4-0.2C287.4,103.7,287.3,103.6,287.3,103.5z M289.7,107.8
	c0-0.6,0.1-1.1,0.3-1.5c0.2-0.4,0.5-0.8,0.9-1c0.4-0.2,0.8-0.4,1.3-0.4c0.8,0,1.4,0.3,1.9,0.8c0.5,0.5,0.7,1.3,0.7,2.2v0.1
	c0,0.6-0.1,1.1-0.3,1.5c-0.2,0.4-0.5,0.8-0.9,1c-0.4,0.2-0.8,0.4-1.4,0.4c-0.8,0-1.4-0.3-1.9-0.8
	C289.9,109.5,289.7,108.7,289.7,107.8L289.7,107.8z M290.7,107.9c0,0.6,0.1,1.1,0.4,1.5c0.3,0.4,0.7,0.6,1.2,0.6
	c0.5,0,0.9-0.2,1.2-0.6c0.3-0.4,0.4-0.9,0.4-1.6c0-0.6-0.1-1.1-0.5-1.5c-0.3-0.4-0.7-0.6-1.2-0.6c-0.5,0-0.9,0.2-1.2,0.6
	C290.8,106.6,290.7,107.2,290.7,107.9z M297.1,105l0,0.7c0.4-0.5,1-0.8,1.7-0.8c1.2,0,1.8,0.7,1.8,2v3.8h-1v-3.8
	c0-0.4-0.1-0.7-0.3-0.9c-0.2-0.2-0.5-0.3-0.9-0.3c-0.3,0-0.6,0.1-0.8,0.3c-0.2,0.2-0.4,0.4-0.6,0.7v4.1h-1V105H297.1z M307.9,110.7
	h-1v-6.5l-2,0.7V104l2.8-1.1h0.2V110.7z"/>
<path class="st3" d="M279.7,147.3c0,0.8-0.2,1.6-0.7,2.2c-0.4,0.7-1,1.2-1.8,1.5c0.9,0.4,1.6,0.9,2.1,1.7c0.5,0.7,0.8,1.5,0.8,2.5
	c0,1.5-0.5,2.6-1.5,3.5c-1,0.9-2.3,1.3-3.9,1.3c-1.6,0-2.9-0.4-3.9-1.3c-1-0.9-1.5-2-1.5-3.5c0-0.9,0.2-1.7,0.7-2.5
	c0.5-0.7,1.2-1.3,2.1-1.7c-0.7-0.4-1.3-0.9-1.8-1.5c-0.4-0.7-0.6-1.4-0.6-2.2c0-1.4,0.5-2.5,1.4-3.4c0.9-0.8,2.1-1.3,3.6-1.3
	c1.5,0,2.7,0.4,3.6,1.3C279.3,144.8,279.7,145.9,279.7,147.3z M278,155.2c0-0.9-0.3-1.7-0.9-2.3c-0.6-0.6-1.4-0.9-2.3-0.9
	c-1,0-1.7,0.3-2.3,0.9c-0.6,0.6-0.9,1.4-0.9,2.3c0,1,0.3,1.7,0.8,2.3c0.6,0.5,1.4,0.8,2.4,0.8c1,0,1.8-0.3,2.4-0.8
	C277.7,156.9,278,156.2,278,155.2z M274.8,144.5c-0.8,0-1.5,0.3-2.1,0.8c-0.5,0.5-0.8,1.2-0.8,2.1c0,0.9,0.3,1.6,0.8,2.1
	c0.5,0.5,1.2,0.8,2.1,0.8c0.9,0,1.5-0.3,2.1-0.8c0.5-0.5,0.8-1.2,0.8-2.1c0-0.9-0.3-1.6-0.8-2.1
	C276.3,144.7,275.6,144.5,274.8,144.5z M293.7,144.1l-7,15.7h-2.2l7-15.1h-9.1v-1.8h11.4V144.1z M296,146.2c0-1,0.3-1.8,1-2.5
	c0.6-0.7,1.5-1,2.5-1c1,0,1.9,0.3,2.5,1c0.6,0.7,1,1.5,1,2.6v0.8c0,1-0.3,1.9-1,2.5c-0.6,0.6-1.5,1-2.5,1c-1,0-1.8-0.3-2.5-1
	c-0.7-0.6-1-1.5-1-2.6V146.2z M297.6,147.1c0,0.6,0.2,1.1,0.5,1.5c0.3,0.4,0.8,0.6,1.4,0.6c0.5,0,1-0.2,1.3-0.6
	c0.3-0.4,0.5-0.9,0.5-1.6v-0.8c0-0.6-0.2-1.1-0.5-1.5c-0.3-0.4-0.8-0.6-1.4-0.6c-0.6,0-1,0.2-1.4,0.6c-0.3,0.4-0.5,0.9-0.5,1.5
	V147.1z M304.2,155.7c0-1,0.3-1.8,1-2.5c0.6-0.7,1.5-1,2.5-1c1,0,1.8,0.3,2.5,1c0.6,0.6,1,1.5,1,2.6v0.8c0,1-0.3,1.8-1,2.5
	c-0.6,0.6-1.5,1-2.5,1s-1.8-0.3-2.5-1c-0.7-0.6-1-1.5-1-2.6V155.7z M305.8,156.6c0,0.6,0.2,1.1,0.5,1.5c0.3,0.4,0.8,0.6,1.4,0.6
	c0.6,0,1-0.2,1.3-0.6c0.3-0.4,0.5-0.9,0.5-1.6v-0.9c0-0.6-0.2-1.1-0.5-1.5c-0.3-0.4-0.8-0.6-1.3-0.6c-0.5,0-1,0.2-1.3,0.6
	c-0.3,0.4-0.5,0.9-0.5,1.5V156.6z M299.9,158.5l-1.2-0.8l8.2-13.2l1.2,0.8L299.9,158.5z"/>
<path class="st2" d="M271.3,175.2c0-0.6,0.1-1.1,0.3-1.5c0.2-0.4,0.5-0.8,0.9-1c0.4-0.2,0.8-0.4,1.3-0.4c0.8,0,1.4,0.3,1.9,0.8
	c0.5,0.5,0.7,1.3,0.7,2.2v0.1c0,0.6-0.1,1.1-0.3,1.5c-0.2,0.4-0.5,0.8-0.9,1c-0.4,0.2-0.8,0.4-1.4,0.4c-0.8,0-1.4-0.3-1.9-0.8
	C271.5,176.8,271.3,176.1,271.3,175.2L271.3,175.2z M272.3,175.3c0,0.6,0.1,1.1,0.4,1.5c0.3,0.4,0.7,0.6,1.2,0.6
	c0.5,0,0.9-0.2,1.2-0.6c0.3-0.4,0.4-0.9,0.4-1.6c0-0.6-0.2-1.1-0.4-1.5c-0.3-0.4-0.7-0.6-1.2-0.6c-0.5,0-0.9,0.2-1.2,0.6
	C272.4,174,272.3,174.6,272.3,175.3z M282.5,175.3c0,0.9-0.2,1.6-0.6,2.1c-0.4,0.5-0.9,0.8-1.6,0.8c-0.7,0-1.2-0.2-1.6-0.7v2.8h-1
	v-7.9h0.9l0,0.6c0.4-0.5,1-0.7,1.7-0.7c0.7,0,1.2,0.3,1.6,0.8C282.3,173.5,282.5,174.3,282.5,175.3L282.5,175.3z M281.6,175.2
	c0-0.6-0.1-1.2-0.4-1.5c-0.3-0.4-0.7-0.6-1.1-0.6c-0.6,0-1,0.3-1.3,0.8v2.7c0.3,0.5,0.7,0.8,1.3,0.8c0.5,0,0.8-0.2,1.1-0.6
	C281.4,176.5,281.6,175.9,281.6,175.2z M285.1,171v1.4h1.1v0.8h-1.1v3.5c0,0.2,0,0.4,0.1,0.5c0.1,0.1,0.3,0.2,0.5,0.2
	c0.1,0,0.3,0,0.5-0.1v0.8c-0.3,0.1-0.5,0.1-0.8,0.1c-0.4,0-0.8-0.1-1-0.4c-0.2-0.3-0.3-0.6-0.3-1.1v-3.5h-1v-0.8h1V171H285.1z
	 M288.4,178.1h-1v-5.7h1V178.1z M287.3,170.8c0-0.2,0-0.3,0.1-0.4c0.1-0.1,0.2-0.2,0.4-0.2c0.2,0,0.3,0.1,0.4,0.2
	c0.1,0.1,0.1,0.2,0.1,0.4c0,0.2,0,0.3-0.1,0.4c-0.1,0.1-0.2,0.2-0.4,0.2c-0.2,0-0.3-0.1-0.4-0.2C287.4,171.1,287.3,171,287.3,170.8z
	 M289.7,175.2c0-0.6,0.1-1.1,0.3-1.5c0.2-0.4,0.5-0.8,0.9-1c0.4-0.2,0.8-0.4,1.3-0.4c0.8,0,1.4,0.3,1.9,0.8c0.5,0.5,0.7,1.3,0.7,2.2
	v0.1c0,0.6-0.1,1.1-0.3,1.5c-0.2,0.4-0.5,0.8-0.9,1c-0.4,0.2-0.8,0.4-1.4,0.4c-0.8,0-1.4-0.3-1.9-0.8
	C289.9,176.8,289.7,176.1,289.7,175.2L289.7,175.2z M290.7,175.3c0,0.6,0.1,1.1,0.4,1.5c0.3,0.4,0.7,0.6,1.2,0.6
	c0.5,0,0.9-0.2,1.2-0.6c0.3-0.4,0.4-0.9,0.4-1.6c0-0.6-0.1-1.1-0.5-1.5c-0.3-0.4-0.7-0.6-1.2-0.6c-0.5,0-0.9,0.2-1.2,0.6
	C290.8,174,290.7,174.6,290.7,175.3z M297.1,172.4l0,0.7c0.4-0.6,1-0.8,1.7-0.8c1.2,0,1.8,0.7,1.8,2v3.8h-1v-3.8
	c0-0.4-0.1-0.7-0.3-0.9c-0.2-0.2-0.5-0.3-0.9-0.3c-0.3,0-0.6,0.1-0.8,0.3c-0.2,0.2-0.4,0.4-0.6,0.7v4.1h-1v-5.7H297.1z M309.8,178.1
	h-5v-0.7l2.7-3c0.4-0.4,0.7-0.8,0.8-1.1c0.2-0.3,0.2-0.6,0.2-0.9c0-0.4-0.1-0.7-0.4-1c-0.2-0.3-0.6-0.4-1-0.4
	c-0.5,0-0.9,0.1-1.1,0.4c-0.3,0.3-0.4,0.7-0.4,1.2h-1c0-0.7,0.2-1.3,0.7-1.7c0.5-0.4,1.1-0.7,1.8-0.7c0.7,0,1.3,0.2,1.7,0.6
	c0.4,0.4,0.6,0.9,0.6,1.5c0,0.8-0.5,1.7-1.4,2.7l-2.1,2.2h3.9V178.1z"/>
<path class="st3" d="M139.5,76.6c-0.1-1.4,1-2.5,2.4-2.5c12,0.1,23.7,4.1,33.3,11.3c10.3,7.8,17.5,18.9,20.5,31.4
	c3,12.5,1.5,25.7-4.1,37.3c-5.6,11.6-15.1,20.8-26.8,26.2c-11.7,5.4-24.9,6.5-37.4,3.2c-12.5-3.3-23.4-10.8-30.9-21.2
	c-7.6-10.4-11.3-23.2-10.5-36c0.7-12,5.3-23.5,13.1-32.6c0.9-1.1,2.5-1.1,3.5-0.2c1,0.9,1.1,2.5,0.2,3.6c-7,8.3-11.1,18.6-11.8,29.5
	c-0.7,11.7,2.7,23.3,9.5,32.8c6.9,9.5,16.8,16.3,28.2,19.3c11.3,3,23.4,1.9,34-3c10.7-4.9,19.3-13.3,24.4-23.9
	c5.1-10.5,6.5-22.5,3.7-33.9c-2.7-11.4-9.3-21.5-18.6-28.6c-8.7-6.6-19.2-10.2-30.1-10.3C140.7,79,139.5,77.9,139.5,76.6z"/>
<path class="st1" d="M138.5,53c-0.1-2,1.5-3.7,3.5-3.7c15.6,0.1,30.8,4.7,43.8,13.3c14,9.3,24.8,22.7,30.8,38.5
	c6,15.7,6.9,32.9,2.5,49.2c-4.3,16.3-13.7,30.7-26.7,41.4c-13,10.7-29,17-45.8,18.1c-16.8,1.1-33.5-3.2-47.8-12.1
	c-14.3-8.9-25.3-22.1-31.7-37.7c-5.9-14.5-7.4-30.3-4.5-45.6c0.4-2,2.3-3.1,4.3-2.7s3.1,2.4,2.7,4.4c-2.6,13.8-1.2,28.1,4.1,41.2
	c5.8,14.2,15.9,26.2,28.9,34.3c13,8.1,28.2,12,43.5,11c15.3-1,29.9-6.7,41.7-16.4c11.8-9.7,20.3-22.9,24.3-37.7
	c3.9-14.8,3.1-30.5-2.3-44.8c-5.4-14.3-15.2-26.6-28-35c-11.8-7.8-25.5-12-39.6-12.1C140.2,56.5,138.6,55,138.5,53z"/>
<path class="st2" d="M133.1,128.4l0.3-2.6h2.6v0.6h-2.1l-0.2,1.4c0.3-0.1,0.5-0.2,0.9-0.2c0.5,0,0.8,0.2,1.1,0.5
	c0.3,0.3,0.4,0.7,0.4,1.3c0,0.5-0.1,0.9-0.4,1.3c-0.3,0.3-0.7,0.5-1.2,0.5c-0.5,0-0.8-0.1-1.1-0.4c-0.3-0.3-0.4-0.6-0.5-1h0.6
	c0,0.3,0.1,0.5,0.3,0.7c0.2,0.1,0.4,0.2,0.7,0.2c0.3,0,0.5-0.1,0.7-0.3c0.2-0.2,0.3-0.5,0.3-0.9c0-0.3-0.1-0.6-0.3-0.8
	c-0.2-0.2-0.4-0.3-0.7-0.3c-0.3,0-0.5,0.1-0.7,0.2l-0.2,0.1L133.1,128.4z M137.1,128.4l0.3-2.6h2.6v0.6h-2.1l-0.2,1.4
	c0.3-0.1,0.5-0.2,0.9-0.2c0.5,0,0.8,0.2,1.1,0.5c0.3,0.3,0.4,0.7,0.4,1.3c0,0.5-0.1,0.9-0.4,1.3c-0.3,0.3-0.7,0.5-1.2,0.5
	c-0.5,0-0.8-0.1-1.1-0.4c-0.3-0.3-0.5-0.6-0.5-1h0.6c0,0.3,0.1,0.5,0.3,0.7c0.2,0.1,0.4,0.2,0.7,0.2c0.3,0,0.5-0.1,0.7-0.3
	c0.2-0.2,0.3-0.5,0.3-0.9c0-0.3-0.1-0.6-0.3-0.8c-0.2-0.2-0.4-0.3-0.7-0.3c-0.3,0-0.5,0.1-0.7,0.2l-0.2,0.1L137.1,128.4z
	 M142.3,129.1h-1.7v-0.5h1.7V129.1z M145.4,125.8v0.6h-0.1c-0.5,0-0.9,0.2-1.2,0.5c-0.3,0.3-0.5,0.7-0.5,1.2
	c0.3-0.3,0.6-0.5,1.1-0.5c0.4,0,0.8,0.2,1.1,0.5c0.3,0.3,0.4,0.7,0.4,1.2c0,0.5-0.1,1-0.4,1.3c-0.3,0.3-0.7,0.5-1.2,0.5
	c-0.5,0-0.9-0.2-1.2-0.6c-0.3-0.4-0.5-0.9-0.5-1.5v-0.3c0-0.9,0.2-1.7,0.6-2.2c0.4-0.5,1-0.8,1.8-0.8H145.4z M144.6,128.1
	c-0.2,0-0.4,0.1-0.6,0.2c-0.2,0.1-0.3,0.3-0.4,0.5v0.2c0,0.4,0.1,0.8,0.3,1c0.2,0.3,0.4,0.4,0.7,0.4c0.3,0,0.5-0.1,0.7-0.3
	c0.2-0.2,0.3-0.5,0.3-0.8c0-0.4-0.1-0.6-0.3-0.9C145.1,128.3,144.9,128.1,144.6,128.1z M149.7,129.2h0.7v0.5h-0.7v1.2H149v-1.2h-2.3
	v-0.4l2.3-3.6h0.7V129.2z M147.4,129.2h1.6v-2.5l-0.1,0.1L147.4,129.2z"/>
<path class="st2" d="M39.5,34.1h-2.9L36,35.9h-0.9l2.6-6.8h0.8l2.6,6.8h-0.9L39.5,34.1z M36.9,33.4h2.3l-1.2-3.2L36.9,33.4z
	 M41.6,33.3c0-0.8,0.2-1.4,0.6-1.9c0.4-0.5,0.9-0.7,1.5-0.7c0.6,0,1.1,0.2,1.5,0.7l0-0.6h0.8v5c0,0.7-0.2,1.2-0.6,1.6
	c-0.4,0.4-0.9,0.6-1.6,0.6c-0.4,0-0.7-0.1-1.1-0.2s-0.6-0.4-0.8-0.6l0.5-0.5c0.4,0.5,0.8,0.7,1.4,0.7c0.4,0,0.8-0.1,1-0.4
	c0.2-0.2,0.4-0.6,0.4-1v-0.4c-0.3,0.4-0.8,0.6-1.4,0.6c-0.6,0-1.1-0.2-1.4-0.7C41.8,34.8,41.6,34.1,41.6,33.3z M42.5,33.4
	c0,0.6,0.1,1,0.4,1.4c0.2,0.3,0.6,0.5,1,0.5c0.5,0,1-0.2,1.2-0.7v-2.3c-0.3-0.5-0.7-0.7-1.2-0.7c-0.4,0-0.8,0.2-1,0.5
	C42.6,32.3,42.5,32.8,42.5,33.4z M49.4,36c-0.7,0-1.3-0.2-1.7-0.7c-0.4-0.5-0.6-1.1-0.6-1.8v-0.2c0-0.5,0.1-1,0.3-1.3
	c0.2-0.4,0.5-0.7,0.8-0.9c0.3-0.2,0.7-0.3,1.1-0.3c0.7,0,1.2,0.2,1.5,0.7c0.4,0.4,0.6,1.1,0.6,1.9v0.4h-3.4c0,0.5,0.2,0.9,0.4,1.2
	c0.3,0.3,0.6,0.5,1.1,0.5c0.3,0,0.6-0.1,0.8-0.2c0.2-0.1,0.4-0.3,0.6-0.5l0.5,0.4C50.9,35.7,50.2,36,49.4,36z M49.3,31.4
	c-0.4,0-0.6,0.1-0.9,0.4c-0.2,0.3-0.4,0.6-0.4,1.1h2.5v-0.1c0-0.4-0.1-0.8-0.4-1C49.9,31.5,49.6,31.4,49.3,31.4z M55.3,34.5
	c0-0.2-0.1-0.4-0.3-0.5c-0.2-0.1-0.5-0.2-0.9-0.3c-0.4-0.1-0.8-0.2-1-0.3c-0.3-0.1-0.4-0.3-0.6-0.5c-0.1-0.2-0.2-0.4-0.2-0.6
	c0-0.4,0.2-0.8,0.5-1.1c0.4-0.3,0.8-0.4,1.4-0.4c0.6,0,1,0.1,1.4,0.4c0.4,0.3,0.5,0.7,0.5,1.1h-0.9c0-0.2-0.1-0.4-0.3-0.6
	c-0.2-0.2-0.5-0.3-0.8-0.3c-0.3,0-0.6,0.1-0.7,0.2c-0.2,0.1-0.3,0.3-0.3,0.5c0,0.2,0.1,0.4,0.2,0.5c0.2,0.1,0.5,0.2,0.9,0.3
	c0.4,0.1,0.8,0.2,1.1,0.3c0.3,0.1,0.5,0.3,0.6,0.5c0.1,0.2,0.2,0.4,0.2,0.7c0,0.5-0.2,0.8-0.5,1.1c-0.4,0.3-0.8,0.4-1.4,0.4
	c-0.4,0-0.8-0.1-1.1-0.2c-0.3-0.1-0.6-0.3-0.7-0.6c-0.2-0.3-0.3-0.5-0.3-0.8H53c0,0.3,0.1,0.5,0.3,0.7c0.2,0.2,0.5,0.3,0.9,0.3
	c0.3,0,0.6-0.1,0.8-0.2C55.2,34.9,55.3,34.8,55.3,34.5z"/>
</svg>
