<?xml version="1.0" encoding="utf-8"?>
<!-- Generator: Adobe Illustrator 24.1.2, SVG Export Plug-In . SVG Version: 6.00 Build 0)  -->
<svg version="1.1" id="Layer_1" xmlns="http://www.w3.org/2000/svg" xmlns:xlink="http://www.w3.org/1999/xlink" x="0px" y="0px"
	 viewBox="0 0 335 229" style="enable-background:new 0 0 335 229;" xml:space="preserve">
<style type="text/css">
	.st0{fill:#FFFFFF;}
	.st1{fill:#172755;}
	.st2{fill:#0088F0;}
	.st3{fill:#EEEEF7;}
	.st4{fill:#EF2A82;}
	.st5{fill:#8794BA;}
</style>
<g>
	<path class="st0" d="M16.7,0.4h301.4c9.2,0,16.7,7.5,16.7,16.8v195.5c0,9.3-7.5,16.8-16.7,16.8H16.7c-9.2,0-16.7-7.5-16.7-16.8
		V17.1C0,7.9,7.5,0.4,16.7,0.4z"/>
</g>
<rect x="38.8" y="57.3" class="st0" width="36.9" height="29"/>
<rect x="75.7" y="57.3" class="st0" width="36.9" height="29"/>
<path class="st1" d="M93.2,73.8h-0.6v-4l-1.2,0.4v-0.5l1.7-0.7h0.1V73.8z"/>
<rect x="112.6" y="57.3" class="st0" width="36.9" height="29"/>
<path class="st1" d="M131.2,73.8h-3.1v-0.4l1.6-1.8c0.2-0.3,0.4-0.5,0.5-0.7c0.1-0.2,0.1-0.4,0.1-0.5c0-0.2-0.1-0.5-0.2-0.6
	c-0.2-0.2-0.4-0.2-0.6-0.2c-0.3,0-0.5,0.1-0.7,0.3c-0.2,0.2-0.2,0.4-0.2,0.7H128c0-0.4,0.1-0.8,0.4-1.1c0.3-0.3,0.7-0.4,1.1-0.4
	c0.4,0,0.8,0.1,1.1,0.4c0.3,0.2,0.4,0.5,0.4,0.9c0,0.5-0.3,1-0.9,1.7l-1.3,1.4h2.4V73.8z"/>
<rect x="149.4" y="57.3" class="st0" width="36.9" height="29"/>
<path class="st1" d="M165.9,71.1h0.5c0.3,0,0.5-0.1,0.7-0.2c0.2-0.1,0.2-0.3,0.2-0.6c0-0.6-0.3-0.8-0.8-0.8c-0.3,0-0.5,0.1-0.6,0.2
	c-0.2,0.1-0.2,0.3-0.2,0.6h-0.6c0-0.4,0.1-0.7,0.4-0.9c0.3-0.3,0.6-0.4,1.1-0.4c0.4,0,0.8,0.1,1.1,0.4c0.3,0.2,0.4,0.6,0.4,1
	c0,0.2-0.1,0.4-0.2,0.6c-0.1,0.2-0.3,0.3-0.5,0.4c0.3,0.1,0.5,0.2,0.6,0.4c0.1,0.2,0.2,0.4,0.2,0.7c0,0.4-0.1,0.8-0.4,1
	c-0.3,0.3-0.6,0.4-1.1,0.4c-0.4,0-0.8-0.1-1.1-0.4c-0.3-0.2-0.4-0.6-0.4-1h0.6c0,0.3,0.1,0.5,0.2,0.6c0.2,0.2,0.4,0.2,0.7,0.2
	c0.3,0,0.5-0.1,0.7-0.2c0.2-0.2,0.2-0.4,0.2-0.7c0-0.3-0.1-0.5-0.3-0.6c-0.2-0.1-0.4-0.2-0.7-0.2h-0.5V71.1z"/>
<rect x="186.3" y="57.3" class="st0" width="36.9" height="29"/>
<path class="st1" d="M204.4,72.2h0.7v0.5h-0.7v1.1h-0.6v-1.1h-2.2v-0.4l2.1-3.3h0.6V72.2z M202.3,72.2h1.5v-2.3l-0.1,0.1L202.3,72.2
	z"/>
<rect x="223.2" y="57.3" class="st0" width="36.9" height="29"/>
<path class="st1" d="M239,71.4l0.2-2.4h2.4v0.6h-1.9l-0.1,1.3c0.2-0.1,0.5-0.2,0.8-0.2c0.4,0,0.8,0.1,1,0.4c0.3,0.3,0.4,0.7,0.4,1.2
	c0,0.5-0.1,0.9-0.4,1.2c-0.3,0.3-0.6,0.4-1.1,0.4c-0.4,0-0.8-0.1-1-0.4c-0.3-0.2-0.4-0.6-0.5-1h0.6c0,0.3,0.1,0.5,0.3,0.6
	c0.2,0.1,0.4,0.2,0.6,0.2c0.3,0,0.5-0.1,0.7-0.3c0.2-0.2,0.2-0.5,0.2-0.8c0-0.3-0.1-0.6-0.3-0.8c-0.2-0.2-0.4-0.3-0.7-0.3
	c-0.3,0-0.5,0.1-0.6,0.2l-0.2,0.1L239,71.4z"/>
<rect x="260" y="57.3" class="st0" width="36.9" height="29"/>
<path class="st1" d="M277.9,69v0.5h-0.1c-0.5,0-0.8,0.1-1.1,0.4c-0.3,0.3-0.4,0.7-0.5,1.1c0.3-0.3,0.6-0.4,1-0.4
	c0.4,0,0.7,0.1,1,0.4c0.2,0.3,0.4,0.7,0.4,1.1c0,0.5-0.1,0.9-0.4,1.2c-0.3,0.3-0.6,0.4-1.1,0.4c-0.5,0-0.8-0.2-1.1-0.5
	c-0.3-0.4-0.4-0.8-0.4-1.4v-0.2c0-0.9,0.2-1.5,0.6-2c0.4-0.5,0.9-0.7,1.7-0.7H277.9z M277.1,71.2c-0.2,0-0.4,0.1-0.6,0.2
	c-0.2,0.1-0.3,0.3-0.4,0.5v0.2c0,0.4,0.1,0.7,0.3,0.9c0.2,0.2,0.4,0.4,0.7,0.4c0.3,0,0.5-0.1,0.6-0.3c0.2-0.2,0.2-0.5,0.2-0.8
	c0-0.3-0.1-0.6-0.2-0.8C277.6,71.3,277.4,71.2,277.1,71.2z"/>
<rect x="38.8" y="86.4" class="st0" width="36.9" height="29"/>
<path class="st1" d="M57.5,98.4l-2,4.4h-0.6l2-4.3h-2.6v-0.5h3.2V98.4z"/>
<rect x="75.7" y="86.4" class="st0" width="36.9" height="29"/>
<circle class="st2" cx="93.8" cy="100.6" r="10.9"/>
<path class="st3" d="M94.1,99.3c0,0.2-0.1,0.4-0.2,0.6c-0.1,0.2-0.3,0.3-0.5,0.4c0.2,0.1,0.4,0.3,0.6,0.5c0.1,0.2,0.2,0.4,0.2,0.7
	c0,0.4-0.1,0.7-0.4,1c-0.3,0.2-0.6,0.4-1.1,0.4c-0.5,0-0.8-0.1-1.1-0.4c-0.3-0.2-0.4-0.6-0.4-1c0-0.3,0.1-0.5,0.2-0.7
	c0.1-0.2,0.3-0.4,0.6-0.5c-0.2-0.1-0.4-0.3-0.5-0.4c-0.1-0.2-0.2-0.4-0.2-0.6c0-0.4,0.1-0.7,0.4-1c0.3-0.2,0.6-0.4,1-0.4
	c0.4,0,0.8,0.1,1,0.4C94,98.6,94.1,98.9,94.1,99.3z M93.6,101.6c0-0.3-0.1-0.5-0.3-0.7c-0.2-0.2-0.4-0.3-0.7-0.3
	c-0.3,0-0.5,0.1-0.7,0.2c-0.2,0.2-0.2,0.4-0.2,0.7c0,0.3,0.1,0.5,0.2,0.6c0.2,0.2,0.4,0.2,0.7,0.2c0.3,0,0.5-0.1,0.7-0.2
	C93.6,102,93.6,101.8,93.6,101.6z M92.7,98.5c-0.2,0-0.4,0.1-0.6,0.2c-0.1,0.1-0.2,0.3-0.2,0.6c0,0.2,0.1,0.4,0.2,0.6
	c0.1,0.1,0.3,0.2,0.6,0.2c0.2,0,0.4-0.1,0.6-0.2c0.1-0.2,0.2-0.3,0.2-0.6c0-0.2-0.1-0.4-0.2-0.6C93.2,98.6,93,98.5,92.7,98.5z"/>
<rect x="112.6" y="86.4" class="st0" width="36.9" height="29"/>
<circle class="st2" cx="130.7" cy="100.6" r="10.9"/>
<path class="st3" d="M130.4,100.8c-0.1,0.2-0.3,0.3-0.5,0.4c-0.2,0.1-0.4,0.1-0.6,0.1c-0.3,0-0.5-0.1-0.7-0.2
	c-0.2-0.1-0.4-0.3-0.5-0.6c-0.1-0.2-0.2-0.5-0.2-0.8c0-0.3,0.1-0.6,0.2-0.9c0.1-0.3,0.3-0.5,0.5-0.6c0.2-0.1,0.5-0.2,0.8-0.2
	c0.5,0,0.8,0.2,1.1,0.5c0.3,0.4,0.4,0.8,0.4,1.4v0.2c0,0.9-0.2,1.6-0.5,2c-0.4,0.4-0.9,0.6-1.7,0.7h-0.1v-0.5h0.1
	c0.5,0,0.9-0.1,1.2-0.4C130.3,101.7,130.4,101.3,130.4,100.8z M129.5,100.8c0.2,0,0.4-0.1,0.6-0.2c0.2-0.1,0.3-0.3,0.4-0.5v-0.2
	c0-0.4-0.1-0.7-0.3-1c-0.2-0.2-0.4-0.4-0.7-0.4c-0.3,0-0.5,0.1-0.6,0.3c-0.2,0.2-0.2,0.5-0.2,0.8c0,0.3,0.1,0.6,0.2,0.8
	C129,100.7,129.2,100.8,129.5,100.8z"/>
<rect x="149.4" y="86.4" class="st0" width="36.9" height="29"/>
<circle class="st2" cx="167.6" cy="100.6" r="10.9"/>
<path class="st3" d="M164.9,102.9h-0.6v-4l-1.2,0.4v-0.5l1.7-0.7h0.1V102.9z M169.6,100.8c0,0.7-0.1,1.2-0.4,1.6
	c-0.2,0.3-0.6,0.5-1.1,0.5c-0.5,0-0.9-0.2-1.1-0.5c-0.2-0.3-0.4-0.8-0.4-1.5v-0.8c0-0.7,0.1-1.2,0.4-1.6c0.2-0.3,0.6-0.5,1.1-0.5
	c0.5,0,0.9,0.2,1.1,0.5c0.2,0.3,0.4,0.8,0.4,1.5V100.8z M169,100c0-0.5-0.1-0.9-0.2-1.1c-0.1-0.2-0.4-0.4-0.7-0.4
	c-0.3,0-0.5,0.1-0.7,0.3c-0.1,0.2-0.2,0.6-0.2,1.1v1c0,0.5,0.1,0.9,0.2,1.1c0.2,0.2,0.4,0.4,0.7,0.4c0.3,0,0.5-0.1,0.7-0.3
	c0.1-0.2,0.2-0.6,0.2-1.1V100z"/>
<rect x="186.3" y="86.4" class="st0" width="36.9" height="29"/>
<path class="st1" d="M201.7,102.9h-0.6v-4l-1.2,0.4v-0.5l1.7-0.7h0.1V102.9z M205.5,102.9h-0.6v-4l-1.2,0.4v-0.5l1.7-0.7h0.1V102.9z
	"/>
<rect x="223.2" y="86.4" class="st0" width="36.9" height="29"/>
<path class="st1" d="M238.6,102.9H238v-4l-1.2,0.4v-0.5l1.7-0.7h0.1V102.9z M243.5,102.9h-3.1v-0.4l1.6-1.8c0.2-0.3,0.4-0.5,0.5-0.7
	c0.1-0.2,0.1-0.4,0.1-0.5c0-0.2-0.1-0.5-0.2-0.6c-0.2-0.2-0.4-0.2-0.6-0.2c-0.3,0-0.5,0.1-0.7,0.3c-0.2,0.2-0.2,0.4-0.2,0.7h-0.6
	c0-0.4,0.1-0.8,0.4-1.1c0.3-0.3,0.7-0.4,1.1-0.4c0.4,0,0.8,0.1,1.1,0.3c0.3,0.2,0.4,0.5,0.4,0.9c0,0.5-0.3,1-0.9,1.7l-1.3,1.4h2.4
	V102.9z"/>
<rect x="260" y="86.4" class="st0" width="36.9" height="29"/>
<path class="st1" d="M275.4,102.9h-0.6v-4l-1.2,0.4v-0.5l1.7-0.7h0.1V102.9z M278.1,100.2h0.5c0.3,0,0.5-0.1,0.7-0.2
	c0.2-0.1,0.2-0.3,0.2-0.6c0-0.6-0.3-0.8-0.8-0.8c-0.3,0-0.5,0.1-0.6,0.2c-0.2,0.1-0.2,0.3-0.2,0.6h-0.6c0-0.4,0.1-0.7,0.4-0.9
	c0.3-0.3,0.6-0.4,1.1-0.4c0.4,0,0.8,0.1,1.1,0.4c0.3,0.2,0.4,0.6,0.4,1c0,0.2-0.1,0.4-0.2,0.6c-0.1,0.2-0.3,0.3-0.5,0.4
	c0.3,0.1,0.5,0.2,0.6,0.4c0.1,0.2,0.2,0.4,0.2,0.7c0,0.4-0.1,0.8-0.4,1c-0.3,0.3-0.6,0.4-1.1,0.4s-0.8-0.1-1.1-0.4
	c-0.3-0.2-0.4-0.6-0.4-1h0.6c0,0.3,0.1,0.5,0.2,0.6c0.2,0.2,0.4,0.2,0.7,0.2c0.3,0,0.5-0.1,0.7-0.2s0.2-0.4,0.2-0.7
	c0-0.3-0.1-0.5-0.3-0.6c-0.2-0.1-0.4-0.2-0.7-0.2h-0.5V100.2z"/>
<rect x="38.8" y="115.4" class="st0" width="36.9" height="29"/>
<path class="st1" d="M54.3,131.9h-0.6v-4l-1.2,0.4v-0.5l1.7-0.7h0.1V131.9z M58.6,130.3h0.7v0.5h-0.7v1.1H58v-1.1h-2.2v-0.4l2.1-3.3
	h0.6V130.3z M56.5,130.3H58V128l-0.1,0.1L56.5,130.3z"/>
<rect x="75.7" y="115.4" class="st0" width="36.9" height="29"/>
<path class="st1" d="M91.1,131.9h-0.6v-4l-1.2,0.4v-0.5l1.7-0.7h0.1V131.9z M93.2,129.5l0.2-2.4h2.4v0.6h-1.9l-0.1,1.3
	c0.2-0.1,0.5-0.2,0.8-0.2c0.4,0,0.8,0.1,1,0.4c0.3,0.3,0.4,0.7,0.4,1.2c0,0.5-0.1,0.9-0.4,1.2c-0.3,0.3-0.6,0.4-1.1,0.4
	c-0.4,0-0.8-0.1-1-0.3c-0.3-0.2-0.4-0.6-0.5-1h0.6c0,0.3,0.1,0.5,0.3,0.6c0.2,0.1,0.4,0.2,0.6,0.2c0.3,0,0.5-0.1,0.7-0.3
	c0.2-0.2,0.2-0.5,0.2-0.8c0-0.3-0.1-0.6-0.3-0.8c-0.2-0.2-0.4-0.3-0.7-0.3c-0.3,0-0.5,0.1-0.6,0.2l-0.2,0.1L93.2,129.5z"/>
<rect x="112.6" y="115.4" class="st0" width="36.9" height="29"/>
<path class="st1" d="M128,131.9h-0.6v-4l-1.2,0.4v-0.5l1.7-0.7h0.1V131.9z M132.1,127.1v0.5H132c-0.5,0-0.8,0.1-1.1,0.4
	c-0.3,0.3-0.4,0.7-0.5,1.1c0.3-0.3,0.6-0.4,1-0.4c0.4,0,0.7,0.1,1,0.4c0.2,0.3,0.4,0.7,0.4,1.1c0,0.5-0.1,0.9-0.4,1.2
	c-0.3,0.3-0.6,0.4-1.1,0.4c-0.5,0-0.8-0.2-1.1-0.5c-0.3-0.4-0.4-0.8-0.4-1.4v-0.2c0-0.9,0.2-1.5,0.6-2c0.4-0.5,0.9-0.7,1.7-0.7
	H132.1z M131.3,129.3c-0.2,0-0.4,0.1-0.6,0.2c-0.2,0.1-0.3,0.3-0.4,0.5v0.2c0,0.4,0.1,0.7,0.3,0.9c0.2,0.2,0.4,0.4,0.7,0.4
	c0.3,0,0.5-0.1,0.6-0.3c0.2-0.2,0.2-0.5,0.2-0.8c0-0.3-0.1-0.6-0.2-0.8C131.8,129.4,131.6,129.3,131.3,129.3z"/>
<rect x="149.4" y="115.4" class="st0" width="36.9" height="29"/>
<path class="st1" d="M164.9,131.9h-0.6v-4l-1.2,0.4v-0.5l1.7-0.7h0.1V131.9z M169.7,127.5l-2,4.4h-0.6l2-4.3h-2.6v-0.5h3.2V127.5z"
	/>
<rect x="186.3" y="115.4" class="st0" width="36.9" height="29"/>
<circle class="st4" cx="204.4" cy="129.7" r="10.9"/>
<path class="st3" d="M201.7,131.9h-0.6v-4l-1.2,0.4v-0.5l1.7-0.7h0.1V131.9z M206.4,128.4c0,0.2-0.1,0.4-0.2,0.6
	c-0.1,0.2-0.3,0.3-0.5,0.4c0.2,0.1,0.4,0.3,0.6,0.5c0.1,0.2,0.2,0.4,0.2,0.7c0,0.4-0.1,0.7-0.4,1c-0.3,0.2-0.6,0.4-1.1,0.4
	c-0.5,0-0.8-0.1-1.1-0.4c-0.3-0.2-0.4-0.6-0.4-1c0-0.3,0.1-0.5,0.2-0.7c0.1-0.2,0.3-0.4,0.6-0.5c-0.2-0.1-0.4-0.2-0.5-0.4
	c-0.1-0.2-0.2-0.4-0.2-0.6c0-0.4,0.1-0.7,0.4-1c0.3-0.2,0.6-0.4,1-0.4c0.4,0,0.8,0.1,1,0.4C206.2,127.7,206.4,128,206.4,128.4z
	 M205.9,130.6c0-0.3-0.1-0.5-0.3-0.7c-0.2-0.2-0.4-0.3-0.7-0.3c-0.3,0-0.5,0.1-0.7,0.2c-0.2,0.2-0.2,0.4-0.2,0.7
	c0,0.3,0.1,0.5,0.2,0.6c0.2,0.2,0.4,0.2,0.7,0.2c0.3,0,0.5-0.1,0.7-0.2C205.8,131.1,205.9,130.9,205.9,130.6z M205,127.6
	c-0.2,0-0.4,0.1-0.6,0.2c-0.1,0.1-0.2,0.3-0.2,0.6c0,0.2,0.1,0.4,0.2,0.6c0.1,0.1,0.3,0.2,0.6,0.2c0.2,0,0.4-0.1,0.6-0.2
	c0.1-0.2,0.2-0.3,0.2-0.6c0-0.2-0.1-0.4-0.2-0.6C205.4,127.6,205.2,127.6,205,127.6z"/>
<rect x="223.2" y="115.4" class="st0" width="36.9" height="29"/>
<path class="st1" d="M238.6,131.9H238v-4l-1.2,0.4v-0.5l1.7-0.7h0.1V131.9z M242.7,129.8c-0.1,0.2-0.3,0.3-0.5,0.4
	c-0.2,0.1-0.4,0.1-0.6,0.1c-0.3,0-0.5-0.1-0.7-0.2c-0.2-0.1-0.4-0.3-0.5-0.6c-0.1-0.2-0.2-0.5-0.2-0.8c0-0.3,0.1-0.6,0.2-0.9
	c0.1-0.3,0.3-0.4,0.5-0.6c0.2-0.1,0.5-0.2,0.8-0.2c0.5,0,0.8,0.2,1.1,0.5c0.3,0.4,0.4,0.8,0.4,1.4v0.2c0,0.9-0.2,1.6-0.5,2
	c-0.4,0.4-0.9,0.6-1.7,0.7H241v-0.5h0.1c0.5,0,0.9-0.1,1.2-0.4C242.5,130.8,242.6,130.4,242.7,129.8z M241.7,129.8
	c0.2,0,0.4-0.1,0.6-0.2c0.2-0.1,0.3-0.3,0.4-0.5v-0.2c0-0.4-0.1-0.7-0.3-1c-0.2-0.2-0.4-0.4-0.7-0.4c-0.3,0-0.5,0.1-0.6,0.3
	c-0.2,0.2-0.2,0.5-0.2,0.8c0,0.3,0.1,0.6,0.2,0.8C241.3,129.7,241.5,129.8,241.7,129.8z"/>
<rect x="260" y="115.4" class="st0" width="36.9" height="29"/>
<path class="st1" d="M276.6,131.9h-3.1v-0.4l1.6-1.8c0.2-0.3,0.4-0.5,0.5-0.7c0.1-0.2,0.1-0.4,0.1-0.5c0-0.2-0.1-0.5-0.2-0.6
	c-0.2-0.2-0.4-0.2-0.6-0.2c-0.3,0-0.5,0.1-0.7,0.3c-0.2,0.2-0.2,0.4-0.2,0.7h-0.6c0-0.4,0.1-0.8,0.4-1.1c0.3-0.3,0.7-0.4,1.1-0.4
	c0.4,0,0.8,0.1,1.1,0.4c0.3,0.2,0.4,0.5,0.4,0.9c0,0.5-0.3,1-0.9,1.7l-1.3,1.4h2.4V131.9z M280.2,129.9c0,0.7-0.1,1.2-0.4,1.6
	c-0.2,0.3-0.6,0.5-1.1,0.5c-0.5,0-0.9-0.2-1.1-0.5c-0.2-0.3-0.4-0.8-0.4-1.5v-0.8c0-0.7,0.1-1.2,0.4-1.6c0.2-0.3,0.6-0.5,1.1-0.5
	c0.5,0,0.9,0.2,1.1,0.5c0.2,0.3,0.4,0.8,0.4,1.5V129.9z M279.6,129c0-0.5-0.1-0.9-0.2-1.1c-0.1-0.2-0.4-0.4-0.7-0.4
	c-0.3,0-0.5,0.1-0.7,0.4c-0.1,0.2-0.2,0.6-0.2,1.1v1c0,0.5,0.1,0.9,0.2,1.1c0.1,0.2,0.4,0.4,0.7,0.4c0.3,0,0.5-0.1,0.7-0.3
	c0.1-0.2,0.2-0.6,0.2-1.1V129z"/>
<rect x="38.8" y="144.5" class="st0" width="36.9" height="29"/>
<path class="st1" d="M55.4,160.9h-3.1v-0.4l1.6-1.8c0.2-0.3,0.4-0.5,0.5-0.7c0.1-0.2,0.1-0.4,0.1-0.5c0-0.2-0.1-0.5-0.2-0.6
	c-0.2-0.2-0.4-0.2-0.6-0.2c-0.3,0-0.5,0.1-0.7,0.3c-0.2,0.2-0.2,0.4-0.2,0.7h-0.6c0-0.4,0.1-0.8,0.4-1.1c0.3-0.3,0.7-0.4,1.1-0.4
	c0.4,0,0.8,0.1,1.1,0.3c0.3,0.2,0.4,0.5,0.4,0.9c0,0.5-0.3,1-0.9,1.7l-1.3,1.4h2.4V160.9z M58,160.9h-0.6v-4l-1.2,0.4v-0.5l1.7-0.7
	H58V160.9z"/>
<rect x="75.7" y="144.5" class="st0" width="36.9" height="29"/>
<path class="st1" d="M92.3,160.9h-3.1v-0.4l1.7-1.8c0.2-0.3,0.4-0.5,0.5-0.7c0.1-0.2,0.1-0.4,0.1-0.5c0-0.2-0.1-0.5-0.2-0.6
	c-0.2-0.2-0.4-0.2-0.6-0.2c-0.3,0-0.5,0.1-0.7,0.3c-0.2,0.2-0.2,0.4-0.2,0.7H89c0-0.4,0.1-0.8,0.4-1.1c0.3-0.3,0.7-0.4,1.1-0.4
	c0.4,0,0.8,0.1,1.1,0.3c0.3,0.2,0.4,0.5,0.4,0.9c0,0.5-0.3,1-0.9,1.7l-1.3,1.4h2.4V160.9z M96,160.9h-3.1v-0.4l1.6-1.8
	c0.2-0.3,0.4-0.5,0.5-0.7c0.1-0.2,0.1-0.4,0.1-0.5c0-0.2-0.1-0.5-0.2-0.6c-0.2-0.2-0.4-0.2-0.6-0.2c-0.3,0-0.5,0.1-0.7,0.3
	c-0.2,0.2-0.2,0.4-0.2,0.7h-0.6c0-0.4,0.1-0.8,0.4-1.1c0.3-0.3,0.7-0.4,1.1-0.4c0.4,0,0.8,0.1,1.1,0.3c0.3,0.2,0.4,0.5,0.4,0.9
	c0,0.5-0.3,1-0.9,1.7l-1.3,1.4H96V160.9z"/>
<rect x="112.6" y="144.5" class="st0" width="36.9" height="29"/>
<path class="st1" d="M129.1,160.9H126v-0.4l1.6-1.8c0.2-0.3,0.4-0.5,0.5-0.7c0.1-0.2,0.1-0.4,0.1-0.5c0-0.2-0.1-0.5-0.2-0.6
	c-0.2-0.2-0.4-0.2-0.6-0.2c-0.3,0-0.5,0.1-0.7,0.3c-0.2,0.2-0.2,0.4-0.2,0.7h-0.6c0-0.4,0.1-0.8,0.4-1.1c0.3-0.3,0.7-0.4,1.1-0.4
	c0.4,0,0.8,0.1,1.1,0.3c0.3,0.2,0.4,0.5,0.4,0.9c0,0.5-0.3,1-0.9,1.7l-1.3,1.4h2.4V160.9z M130.6,158.3h0.5c0.3,0,0.5-0.1,0.7-0.2
	c0.2-0.1,0.2-0.3,0.2-0.6c0-0.6-0.3-0.8-0.8-0.8c-0.3,0-0.5,0.1-0.6,0.2c-0.2,0.1-0.2,0.3-0.2,0.6h-0.6c0-0.4,0.1-0.7,0.4-0.9
	c0.3-0.3,0.6-0.4,1.1-0.4c0.4,0,0.8,0.1,1.1,0.4c0.3,0.2,0.4,0.6,0.4,1c0,0.2-0.1,0.4-0.2,0.6c-0.1,0.2-0.3,0.3-0.5,0.4
	c0.3,0.1,0.5,0.2,0.6,0.4c0.1,0.2,0.2,0.4,0.2,0.7c0,0.4-0.1,0.8-0.4,1c-0.3,0.3-0.6,0.4-1.1,0.4c-0.4,0-0.8-0.1-1.1-0.4
	c-0.3-0.2-0.4-0.6-0.4-1h0.6c0,0.3,0.1,0.5,0.2,0.6c0.2,0.2,0.4,0.2,0.7,0.2c0.3,0,0.5-0.1,0.7-0.2s0.2-0.4,0.2-0.7
	c0-0.3-0.1-0.5-0.3-0.6c-0.2-0.1-0.4-0.2-0.7-0.2h-0.5V158.3z"/>
<rect x="149.4" y="144.5" class="st0" width="36.9" height="29"/>
<path class="st1" d="M166,160.9h-3.1v-0.4l1.6-1.8c0.2-0.3,0.4-0.5,0.5-0.7c0.1-0.2,0.1-0.4,0.1-0.5c0-0.2-0.1-0.5-0.2-0.6
	c-0.1-0.2-0.4-0.2-0.6-0.2c-0.3,0-0.5,0.1-0.7,0.3c-0.2,0.2-0.2,0.4-0.2,0.7h-0.6c0-0.4,0.1-0.8,0.4-1.1c0.3-0.3,0.7-0.4,1.1-0.4
	c0.4,0,0.8,0.1,1.1,0.3c0.3,0.2,0.4,0.5,0.4,0.9c0,0.5-0.3,1-0.9,1.7l-1.3,1.4h2.4V160.9z M169.2,159.3h0.7v0.5h-0.7v1.1h-0.6v-1.1
	h-2.2v-0.4l2.1-3.3h0.6V159.3z M167.1,159.3h1.5V157l-0.1,0.1L167.1,159.3z"/>
<rect x="186.3" y="144.5" class="st0" width="36.9" height="29"/>
<path class="st1" d="M202.8,160.9h-3.1v-0.4l1.7-1.8c0.2-0.3,0.4-0.5,0.5-0.7c0.1-0.2,0.1-0.4,0.1-0.5c0-0.2-0.1-0.5-0.2-0.6
	c-0.2-0.2-0.4-0.2-0.6-0.2c-0.3,0-0.5,0.1-0.7,0.3c-0.2,0.2-0.2,0.4-0.2,0.7h-0.6c0-0.4,0.1-0.8,0.4-1.1c0.3-0.3,0.7-0.4,1.1-0.4
	c0.4,0,0.8,0.1,1,0.3c0.3,0.2,0.4,0.5,0.4,0.9c0,0.5-0.3,1-0.9,1.7l-1.3,1.4h2.4V160.9z M203.8,158.6l0.2-2.4h2.4v0.6h-1.9l-0.1,1.3
	c0.2-0.1,0.5-0.2,0.8-0.2c0.4,0,0.8,0.1,1,0.4c0.3,0.3,0.4,0.7,0.4,1.2c0,0.5-0.1,0.9-0.4,1.2c-0.3,0.3-0.6,0.4-1.1,0.4
	c-0.4,0-0.8-0.1-1-0.4c-0.3-0.2-0.4-0.6-0.5-1h0.6c0,0.3,0.1,0.5,0.3,0.6c0.2,0.1,0.4,0.2,0.6,0.2c0.3,0,0.5-0.1,0.7-0.3
	c0.2-0.2,0.2-0.5,0.2-0.8c0-0.3-0.1-0.6-0.3-0.8c-0.2-0.2-0.4-0.3-0.7-0.3c-0.3,0-0.5,0.1-0.6,0.2l-0.2,0.1L203.8,158.6z"/>
<rect x="223.2" y="144.5" class="st0" width="36.9" height="29"/>
<path class="st1" d="M239.7,160.9h-3.1v-0.4l1.6-1.8c0.2-0.3,0.4-0.5,0.5-0.7c0.1-0.2,0.1-0.4,0.1-0.5c0-0.2-0.1-0.5-0.2-0.6
	c-0.1-0.2-0.4-0.2-0.6-0.2c-0.3,0-0.5,0.1-0.7,0.3c-0.2,0.2-0.2,0.4-0.2,0.7h-0.6c0-0.4,0.1-0.8,0.4-1.1c0.3-0.3,0.7-0.4,1.1-0.4
	c0.4,0,0.8,0.1,1.1,0.3c0.3,0.2,0.4,0.5,0.4,0.9c0,0.5-0.3,1-0.9,1.7l-1.3,1.4h2.4V160.9z M242.7,156.2v0.5h-0.1
	c-0.5,0-0.8,0.1-1.1,0.4c-0.3,0.3-0.4,0.7-0.5,1.1c0.3-0.3,0.6-0.4,1-0.4c0.4,0,0.7,0.1,1,0.4c0.2,0.3,0.4,0.7,0.4,1.1
	c0,0.5-0.1,0.9-0.4,1.2c-0.3,0.3-0.6,0.4-1.1,0.4c-0.5,0-0.8-0.2-1.1-0.5c-0.3-0.4-0.4-0.8-0.4-1.4v-0.2c0-0.9,0.2-1.5,0.6-2
	c0.4-0.5,0.9-0.7,1.7-0.7H242.7z M241.9,158.3c-0.2,0-0.4,0.1-0.6,0.2c-0.2,0.1-0.3,0.3-0.4,0.5v0.2c0,0.4,0.1,0.7,0.3,0.9
	c0.2,0.2,0.4,0.4,0.7,0.4c0.3,0,0.5-0.1,0.6-0.3c0.2-0.2,0.2-0.5,0.2-0.8c0-0.3-0.1-0.6-0.2-0.8
	C242.4,158.4,242.2,158.3,241.9,158.3z"/>
<rect x="260" y="144.5" class="st0" width="36.9" height="29"/>
<path class="st1" d="M276.6,160.9h-3.1v-0.4l1.6-1.8c0.2-0.3,0.4-0.5,0.5-0.7c0.1-0.2,0.1-0.4,0.1-0.5c0-0.2-0.1-0.5-0.2-0.6
	c-0.2-0.2-0.4-0.2-0.6-0.2c-0.3,0-0.5,0.1-0.7,0.3c-0.2,0.2-0.2,0.4-0.2,0.7h-0.6c0-0.4,0.1-0.8,0.4-1.1c0.3-0.3,0.7-0.4,1.1-0.4
	c0.4,0,0.8,0.1,1.1,0.3c0.3,0.2,0.4,0.5,0.4,0.9c0,0.5-0.3,1-0.9,1.7l-1.3,1.4h2.4V160.9z M280.3,156.5l-2,4.4h-0.6l2-4.3h-2.6v-0.5
	h3.2V156.5z"/>
<rect x="38.8" y="173.5" class="st0" width="36.9" height="29"/>
<path class="st1" d="M55.4,190h-3.1v-0.4l1.6-1.8c0.2-0.3,0.4-0.5,0.5-0.7c0.1-0.2,0.1-0.4,0.1-0.5c0-0.2-0.1-0.5-0.2-0.6
	c-0.2-0.2-0.4-0.2-0.6-0.2c-0.3,0-0.5,0.1-0.7,0.3c-0.2,0.2-0.2,0.4-0.2,0.7h-0.6c0-0.4,0.1-0.8,0.4-1.1c0.3-0.3,0.7-0.4,1.1-0.4
	c0.4,0,0.8,0.1,1.1,0.4c0.3,0.2,0.4,0.5,0.4,0.9c0,0.5-0.3,1-0.9,1.7l-1.3,1.4h2.4V190z M58.9,186.5c0,0.2-0.1,0.4-0.2,0.6
	c-0.1,0.2-0.3,0.3-0.5,0.4c0.2,0.1,0.4,0.3,0.6,0.5c0.1,0.2,0.2,0.4,0.2,0.7c0,0.4-0.1,0.7-0.4,1c-0.3,0.2-0.6,0.4-1.1,0.4
	c-0.5,0-0.8-0.1-1.1-0.4c-0.3-0.2-0.4-0.6-0.4-1c0-0.3,0.1-0.5,0.2-0.7c0.1-0.2,0.3-0.4,0.6-0.5c-0.2-0.1-0.4-0.3-0.5-0.4
	c-0.1-0.2-0.2-0.4-0.2-0.6c0-0.4,0.1-0.7,0.4-1c0.3-0.2,0.6-0.4,1-0.4c0.4,0,0.8,0.1,1,0.4C58.8,185.8,58.9,186.1,58.9,186.5z
	 M58.4,188.7c0-0.3-0.1-0.5-0.3-0.7c-0.2-0.2-0.4-0.3-0.7-0.3s-0.5,0.1-0.7,0.2c-0.2,0.2-0.2,0.4-0.2,0.7c0,0.3,0.1,0.5,0.2,0.6
	c0.2,0.2,0.4,0.2,0.7,0.2c0.3,0,0.5-0.1,0.7-0.2C58.3,189.2,58.4,189,58.4,188.7z M57.5,185.7c-0.2,0-0.4,0.1-0.6,0.2
	c-0.1,0.1-0.2,0.3-0.2,0.6c0,0.2,0.1,0.4,0.2,0.6c0.1,0.1,0.3,0.2,0.6,0.2s0.4-0.1,0.6-0.2c0.1-0.2,0.2-0.3,0.2-0.6
	s-0.1-0.4-0.2-0.6C57.9,185.7,57.8,185.7,57.5,185.7z"/>
<rect x="75.7" y="173.5" class="st0" width="36.9" height="29"/>
<path class="st1" d="M92.3,190h-3.1v-0.4l1.7-1.8c0.2-0.3,0.4-0.5,0.5-0.7c0.1-0.2,0.1-0.4,0.1-0.5c0-0.2-0.1-0.5-0.2-0.6
	c-0.2-0.2-0.4-0.2-0.6-0.2c-0.3,0-0.5,0.1-0.7,0.3c-0.2,0.2-0.2,0.4-0.2,0.7H89c0-0.4,0.1-0.8,0.4-1.1c0.3-0.3,0.7-0.4,1.1-0.4
	c0.4,0,0.8,0.1,1.1,0.4c0.3,0.2,0.4,0.5,0.4,0.9c0,0.5-0.3,1-0.9,1.7l-1.3,1.4h2.4V190z M95.2,187.9c-0.1,0.2-0.3,0.3-0.5,0.4
	c-0.2,0.1-0.4,0.1-0.6,0.1c-0.3,0-0.5-0.1-0.7-0.2c-0.2-0.1-0.4-0.3-0.5-0.6c-0.1-0.2-0.2-0.5-0.2-0.8c0-0.3,0.1-0.6,0.2-0.9
	c0.1-0.3,0.3-0.5,0.5-0.6c0.2-0.1,0.5-0.2,0.8-0.2c0.5,0,0.8,0.2,1.1,0.5c0.3,0.4,0.4,0.8,0.4,1.4v0.2c0,0.9-0.2,1.6-0.6,2
	c-0.4,0.4-0.9,0.6-1.7,0.7h-0.1v-0.5h0.1c0.5,0,0.9-0.1,1.2-0.4C95,188.8,95.2,188.4,95.2,187.9z M94.3,187.9c0.2,0,0.4-0.1,0.6-0.2
	c0.2-0.1,0.3-0.3,0.4-0.5V187c0-0.4-0.1-0.7-0.3-1c-0.2-0.2-0.4-0.4-0.7-0.4c-0.3,0-0.5,0.1-0.6,0.3c-0.2,0.2-0.2,0.5-0.2,0.8
	c0,0.3,0.1,0.6,0.2,0.8C93.8,187.8,94,187.9,94.3,187.9z"/>
<rect x="112.6" y="173.5" class="st0" width="36.9" height="29"/>
<path class="st1" d="M126.9,187.3h0.5c0.3,0,0.5-0.1,0.7-0.2c0.2-0.1,0.2-0.3,0.2-0.6c0-0.6-0.3-0.8-0.8-0.8c-0.3,0-0.5,0.1-0.6,0.2
	c-0.2,0.1-0.2,0.3-0.2,0.6H126c0-0.4,0.1-0.7,0.4-0.9c0.3-0.3,0.6-0.4,1.1-0.4c0.5,0,0.8,0.1,1.1,0.4c0.3,0.2,0.4,0.6,0.4,1
	c0,0.2-0.1,0.4-0.2,0.6c-0.1,0.2-0.3,0.3-0.5,0.4c0.3,0.1,0.5,0.2,0.6,0.4c0.1,0.2,0.2,0.4,0.2,0.7c0,0.4-0.1,0.8-0.4,1
	c-0.3,0.3-0.6,0.4-1.1,0.4c-0.4,0-0.8-0.1-1.1-0.4c-0.3-0.2-0.4-0.6-0.4-1h0.6c0,0.3,0.1,0.5,0.2,0.6c0.2,0.2,0.4,0.2,0.7,0.2
	c0.3,0,0.5-0.1,0.7-0.2s0.2-0.4,0.2-0.7c0-0.3-0.1-0.5-0.3-0.6c-0.2-0.1-0.4-0.2-0.7-0.2h-0.5V187.3z M132.7,188
	c0,0.7-0.1,1.2-0.4,1.6s-0.6,0.5-1.1,0.5c-0.5,0-0.9-0.2-1.1-0.5c-0.2-0.3-0.4-0.8-0.4-1.5v-0.8c0-0.7,0.1-1.2,0.4-1.6
	c0.2-0.3,0.6-0.5,1.1-0.5c0.5,0,0.9,0.2,1.1,0.5c0.2,0.3,0.4,0.8,0.4,1.5V188z M132.1,187.1c0-0.5-0.1-0.9-0.2-1.1
	c-0.1-0.2-0.4-0.4-0.7-0.4c-0.3,0-0.5,0.1-0.7,0.4c-0.1,0.2-0.2,0.6-0.2,1.1v1c0,0.5,0.1,0.9,0.2,1.1c0.1,0.2,0.4,0.4,0.7,0.4
	c0.3,0,0.5-0.1,0.7-0.3c0.1-0.2,0.2-0.6,0.2-1.1V187.1z"/>
<rect x="149.4" y="173.5" class="st0" width="36.9" height="29"/>
<path class="st1" d="M163.7,187.3h0.5c0.3,0,0.5-0.1,0.7-0.2c0.2-0.1,0.2-0.3,0.2-0.6c0-0.6-0.3-0.8-0.8-0.8c-0.3,0-0.5,0.1-0.6,0.2
	c-0.2,0.1-0.2,0.3-0.2,0.6h-0.6c0-0.4,0.1-0.7,0.4-0.9c0.3-0.3,0.6-0.4,1.1-0.4c0.4,0,0.8,0.1,1.1,0.4c0.3,0.2,0.4,0.6,0.4,1
	c0,0.2-0.1,0.4-0.2,0.6c-0.1,0.2-0.3,0.3-0.5,0.4c0.3,0.1,0.5,0.2,0.6,0.4c0.1,0.2,0.2,0.4,0.2,0.7c0,0.4-0.1,0.8-0.4,1
	c-0.3,0.3-0.6,0.4-1.1,0.4c-0.4,0-0.8-0.1-1.1-0.4c-0.3-0.2-0.4-0.6-0.4-1h0.6c0,0.3,0.1,0.5,0.2,0.6c0.2,0.2,0.4,0.2,0.7,0.2
	c0.3,0,0.5-0.1,0.7-0.2s0.2-0.4,0.2-0.7c0-0.3-0.1-0.5-0.3-0.6c-0.2-0.1-0.4-0.2-0.7-0.2h-0.5V187.3z M168.6,190H168v-4l-1.2,0.4
	v-0.6l1.7-0.7h0.1V190z"/>
<rect x="186.3" y="173.5" class="st0" width="36.9" height="29"/>
<rect x="223.2" y="173.5" class="st0" width="36.9" height="29"/>
<rect x="260" y="173.5" class="st0" width="36.9" height="29"/>
<path class="st5" d="M49.1,34.4l1.6,3.9l1.6-3.9H53v4.8h-0.6v-1.9l0.1-2l-1.6,3.9h-0.5l-1.6-3.8l0.1,2v1.9h-0.6v-4.8H49.1z M57.8,37
	c0,0.5-0.1,0.9-0.2,1.2c-0.2,0.3-0.4,0.6-0.7,0.8c-0.3,0.2-0.6,0.3-1,0.3c-0.4,0-0.7-0.1-1-0.3c-0.3-0.2-0.5-0.4-0.7-0.8
	C54,37.8,54,37.5,53.9,37v-0.3c0-0.5,0.1-0.9,0.2-1.2c0.2-0.4,0.4-0.6,0.7-0.8c0.3-0.2,0.6-0.3,1-0.3c0.4,0,0.7,0.1,1,0.3
	c0.3,0.2,0.5,0.5,0.7,0.8c0.2,0.3,0.2,0.8,0.2,1.2V37z M57.2,36.7c0-0.6-0.1-1-0.3-1.3c-0.2-0.3-0.5-0.5-1-0.5
	c-0.4,0-0.7,0.2-0.9,0.5c-0.2,0.3-0.3,0.7-0.4,1.3V37c0,0.5,0.1,1,0.3,1.3c0.2,0.3,0.5,0.5,1,0.5c0.4,0,0.7-0.1,0.9-0.4
	c0.2-0.3,0.3-0.7,0.3-1.3V36.7z M62.4,39.2h-0.6l-2.4-3.7v3.7h-0.6v-4.8h0.6l2.4,3.7v-3.7h0.6V39.2z"/>
<path class="st5" d="M91.1,34.9h-1.5v4.2H89v-4.2h-1.5v-0.5h3.7V34.9z M95.2,34.4v3.2c0,0.4-0.1,0.8-0.4,1.1
	c-0.3,0.3-0.7,0.4-1.1,0.5l-0.2,0c-0.5,0-0.9-0.1-1.2-0.4c-0.3-0.3-0.5-0.7-0.5-1.2v-3.2h0.6v3.2c0,0.3,0.1,0.6,0.3,0.8
	c0.2,0.2,0.5,0.3,0.8,0.3c0.4,0,0.6-0.1,0.8-0.3c0.2-0.2,0.3-0.5,0.3-0.8v-3.2H95.2z M98.9,37h-2.1v1.7h2.4v0.5h-3v-4.8h3v0.5h-2.4
	v1.5h2.1V37z"/>
<path class="st5" d="M124.6,37.7l0.1,0.6l0.1-0.6l0.9-3.3h0.5l0.9,3.3l0.1,0.6l0.1-0.6l0.7-3.3h0.6l-1.2,4.8h-0.6l-1-3.5l-0.1-0.4
	l-0.1,0.4l-1,3.5h-0.6l-1.2-4.8h0.6L124.6,37.7z M132.2,37h-2.1v1.7h2.4v0.5h-3v-4.8h3v0.5h-2.4v1.5h2.1V37z M133.3,39.2v-4.8h1.3
	c0.4,0,0.8,0.1,1.1,0.3s0.6,0.4,0.7,0.8c0.2,0.3,0.3,0.7,0.3,1.2v0.3c0,0.4-0.1,0.8-0.3,1.2c-0.2,0.3-0.4,0.6-0.7,0.8
	c-0.3,0.2-0.7,0.3-1.1,0.3H133.3z M134,34.9v3.7h0.7c0.5,0,0.9-0.2,1.1-0.5c0.3-0.3,0.4-0.7,0.4-1.3v-0.3c0-0.5-0.1-1-0.4-1.3
	c-0.3-0.3-0.6-0.5-1.1-0.5H134z"/>
<path class="st5" d="M163.3,34.9h-1.5v4.2h-0.6v-4.2h-1.5v-0.5h3.7V34.9z M167.7,39.2h-0.6V37h-2.4v2.2H164v-4.8h0.6v2h2.4v-2h0.6
	V39.2z M172.2,34.4v3.2c0,0.4-0.1,0.8-0.4,1.1c-0.3,0.3-0.7,0.4-1.1,0.5l-0.2,0c-0.5,0-0.9-0.1-1.2-0.4c-0.3-0.3-0.5-0.7-0.5-1.2
	v-3.2h0.6v3.2c0,0.3,0.1,0.6,0.3,0.8c0.2,0.2,0.5,0.3,0.8,0.3c0.4,0,0.6-0.1,0.8-0.3c0.2-0.2,0.3-0.5,0.3-0.8v-3.2H172.2z"/>
<path class="st5" d="M201.9,37.1h-2v2.1h-0.6v-4.8h3v0.5h-2.3v1.6h2V37.1z M204.8,37.3h-1.1v1.9H203v-4.8h1.6c0.5,0,0.9,0.1,1.2,0.4
	c0.3,0.2,0.4,0.6,0.4,1.1c0,0.3-0.1,0.6-0.2,0.8c-0.2,0.2-0.4,0.4-0.7,0.5l1.1,2v0h-0.7L204.8,37.3z M203.6,36.7h1
	c0.3,0,0.6-0.1,0.7-0.2c0.2-0.2,0.3-0.4,0.3-0.6c0-0.3-0.1-0.5-0.3-0.7c-0.2-0.2-0.4-0.2-0.8-0.2h-1V36.7z M207.8,39.2h-0.6v-4.8
	h0.6V39.2z"/>
<path class="st5" d="M236.3,37.1c-0.5-0.2-0.9-0.3-1.2-0.6c-0.2-0.2-0.4-0.5-0.4-0.8c0-0.4,0.1-0.7,0.4-0.9c0.3-0.2,0.7-0.4,1.2-0.4
	c0.3,0,0.6,0.1,0.9,0.2c0.3,0.1,0.5,0.3,0.6,0.5c0.1,0.2,0.2,0.5,0.2,0.7h-0.6c0-0.3-0.1-0.5-0.3-0.7c-0.2-0.2-0.4-0.2-0.8-0.2
	c-0.3,0-0.6,0.1-0.7,0.2c-0.2,0.1-0.3,0.3-0.3,0.6c0,0.2,0.1,0.4,0.2,0.5c0.2,0.1,0.4,0.3,0.8,0.4c0.4,0.1,0.7,0.2,0.9,0.4
	c0.2,0.1,0.4,0.3,0.5,0.5c0.1,0.2,0.2,0.4,0.2,0.6c0,0.4-0.2,0.7-0.5,0.9c-0.3,0.2-0.7,0.3-1.2,0.3c-0.3,0-0.6-0.1-0.9-0.2
	c-0.3-0.1-0.5-0.3-0.7-0.5c-0.2-0.2-0.2-0.5-0.2-0.7h0.6c0,0.3,0.1,0.5,0.3,0.7c0.2,0.2,0.5,0.2,0.9,0.2c0.3,0,0.6-0.1,0.8-0.2
	c0.2-0.1,0.3-0.3,0.3-0.6c0-0.2-0.1-0.4-0.2-0.5C237,37.3,236.7,37.2,236.3,37.1z M241.5,37.9h-2l-0.4,1.2h-0.6l1.8-4.8h0.6l1.8,4.8
	H242L241.5,37.9z M239.7,37.4h1.6l-0.8-2.2L239.7,37.4z M246.1,34.9h-1.5v4.2H244v-4.2h-1.5v-0.5h3.7V34.9z"/>
<path class="st5" d="M272,37.1c-0.5-0.2-0.9-0.3-1.2-0.6c-0.2-0.2-0.4-0.5-0.4-0.8c0-0.4,0.1-0.7,0.4-0.9c0.3-0.2,0.7-0.4,1.2-0.4
	c0.3,0,0.6,0.1,0.9,0.2c0.3,0.1,0.5,0.3,0.6,0.5c0.1,0.2,0.2,0.5,0.2,0.7h-0.6c0-0.3-0.1-0.5-0.3-0.7c-0.2-0.2-0.4-0.2-0.8-0.2
	c-0.3,0-0.6,0.1-0.7,0.2c-0.2,0.1-0.3,0.3-0.3,0.6c0,0.2,0.1,0.4,0.2,0.5c0.2,0.1,0.4,0.3,0.8,0.4c0.4,0.1,0.7,0.2,0.9,0.4
	c0.2,0.1,0.4,0.3,0.5,0.5c0.1,0.2,0.2,0.4,0.2,0.6c0,0.4-0.2,0.7-0.5,0.9c-0.3,0.2-0.7,0.3-1.2,0.3c-0.3,0-0.6-0.1-0.9-0.2
	c-0.3-0.1-0.5-0.3-0.7-0.5c-0.2-0.2-0.2-0.5-0.2-0.7h0.6c0,0.3,0.1,0.5,0.3,0.7c0.2,0.2,0.5,0.2,0.9,0.2c0.3,0,0.6-0.1,0.8-0.2
	c0.2-0.1,0.3-0.3,0.3-0.6c0-0.2-0.1-0.4-0.2-0.5C272.8,37.3,272.5,37.2,272,37.1z M278,34.4v3.2c0,0.4-0.1,0.8-0.4,1.1
	c-0.3,0.3-0.7,0.4-1.1,0.5l-0.2,0c-0.5,0-0.9-0.1-1.2-0.4c-0.3-0.3-0.5-0.7-0.5-1.2v-3.2h0.6v3.2c0,0.3,0.1,0.6,0.3,0.8
	c0.2,0.2,0.5,0.3,0.8,0.3c0.4,0,0.6-0.1,0.8-0.3c0.2-0.2,0.3-0.5,0.3-0.8v-3.2H278z M282.6,39.2H282l-2.4-3.7v3.7H279v-4.8h0.6
	l2.4,3.7v-3.7h0.6V39.2z"/>
</svg>
