<?xml version="1.0" encoding="utf-8"?>
<!-- Generator: Adobe Illustrator 24.1.2, SVG Export Plug-In . SVG Version: 6.00 Build 0)  -->
<svg version="1.1" id="Layer_1" xmlns="http://www.w3.org/2000/svg" xmlns:xlink="http://www.w3.org/1999/xlink" x="0px" y="0px"
	 viewBox="0 0 335 229" style="enable-background:new 0 0 335 229;" xml:space="preserve">
<style type="text/css">
	.st0{fill:#FFFFFF;}
	.st1{fill:none;stroke:#EEEEF7;stroke-width:2;}
	.st2{fill:none;stroke:#0088F0;stroke-width:4;}
	.st3{fill:none;stroke:#EF2A82;stroke-width:4;}
	.st4{fill:#EF2A82;}
	.st5{fill:#8794BA;}
	.st6{fill:#0088F0;}
</style>
<g>
	<path class="st0" d="M16.8,0h301.5c9.3,0,16.8,7.5,16.8,16.8v195.5c0,9.3-7.5,16.8-16.8,16.8H16.8C7.5,229,0,221.5,0,212.2V16.8
		C0,7.5,7.5,0,16.8,0z"/>
</g>
<path class="st1" d="M62,78.2l60.8-35.1l60.8,35.1v70.3l-60.8,35.1L62,148.5V78.2z"/>
<path class="st1" d="M83.3,90.5l39.6-22.9l39.6,22.9v45.7l-39.6,22.9l-39.6-22.9V90.5z"/>
<path class="st2" d="M90.7,95L123,68.3l45.6,17.9l3.3,54.7L123,170.1l-35.9-37.5L90.7,95z"/>
<path class="st3" d="M76.2,86.8l46.3-25.6l25.6,38.2L165,138h-42l-29.3-8.2L76.2,86.8z"/>
<path class="st1" d="M109.4,105.6l13.5-7.8l13.5,7.8v15.6l-13.5,7.8l-13.5-7.8V105.6z"/>
<path class="st4" d="M257.1,76.1h1.5c0.9,0,1.7-0.3,2.2-0.7c0.5-0.5,0.8-1.1,0.8-1.9c0-1.8-0.9-2.8-2.7-2.8c-0.9,0-1.5,0.2-2.1,0.7
	c-0.5,0.5-0.8,1.1-0.8,1.9h-2c0-1.2,0.5-2.3,1.4-3.1c0.9-0.8,2.1-1.2,3.5-1.2c1.5,0,2.6,0.4,3.5,1.2c0.8,0.8,1.3,1.9,1.3,3.3
	c0,0.7-0.2,1.3-0.7,2c-0.4,0.6-1,1.1-1.8,1.4c0.9,0.3,1.5,0.7,2,1.4c0.5,0.6,0.7,1.4,0.7,2.3c0,1.4-0.5,2.5-1.4,3.3
	c-0.9,0.8-2.1,1.2-3.6,1.2s-2.7-0.4-3.6-1.2c-0.9-0.8-1.4-1.8-1.4-3.2h2c0,0.8,0.3,1.5,0.8,2c0.5,0.5,1.3,0.7,2.2,0.7
	c1,0,1.7-0.3,2.2-0.8c0.5-0.5,0.8-1.2,0.8-2.2c0-0.9-0.3-1.6-0.8-2.1c-0.6-0.5-1.4-0.7-2.4-0.8h-1.5V76.1z M275,79.6h2.2v1.6H275
	v3.6h-2v-3.6h-7.1v-1.2l7-10.8h2.1V79.6z M268.1,79.6h4.9V72l-0.2,0.4L268.1,79.6z M278.8,72.3c0-0.9,0.3-1.7,0.9-2.3
	c0.6-0.6,1.4-0.9,2.3-0.9c1,0,1.7,0.3,2.3,0.9c0.6,0.6,0.9,1.4,0.9,2.4v0.8c0,0.9-0.3,1.7-0.9,2.3c-0.6,0.6-1.4,0.9-2.3,0.9
	c-0.9,0-1.7-0.3-2.3-0.9c-0.6-0.6-0.9-1.4-0.9-2.4V72.3z M280.3,73.1c0,0.6,0.2,1,0.5,1.4c0.3,0.4,0.7,0.5,1.3,0.5
	c0.5,0,0.9-0.2,1.2-0.5c0.3-0.4,0.5-0.8,0.5-1.4v-0.8c0-0.6-0.2-1-0.5-1.4c-0.3-0.4-0.7-0.5-1.3-0.5s-0.9,0.2-1.3,0.5
	c-0.3,0.4-0.5,0.8-0.5,1.4V73.1z M286.4,81.1c0-0.9,0.3-1.7,0.9-2.3c0.6-0.6,1.4-0.9,2.3-0.9c0.9,0,1.7,0.3,2.3,0.9
	c0.6,0.6,0.9,1.4,0.9,2.4v0.8c0,0.9-0.3,1.7-0.9,2.3c-0.6,0.6-1.4,0.9-2.3,0.9c-0.9,0-1.7-0.3-2.3-0.9c-0.6-0.6-0.9-1.4-0.9-2.4
	V81.1z M287.9,81.9c0,0.6,0.2,1,0.5,1.4c0.3,0.4,0.7,0.5,1.3,0.5c0.5,0,0.9-0.2,1.2-0.5c0.3-0.4,0.5-0.8,0.5-1.5v-0.8
	c0-0.6-0.2-1-0.5-1.4c-0.3-0.4-0.7-0.5-1.2-0.5c-0.5,0-0.9,0.2-1.2,0.5c-0.3,0.4-0.5,0.8-0.5,1.4V81.9z M282.5,83.7l-1.1-0.7
	l7.6-12.2l1.1,0.7L282.5,83.7z"/>
<path class="st5" d="M253.4,99.5c0-0.5,0.1-1,0.3-1.4c0.2-0.4,0.5-0.7,0.9-1c0.4-0.2,0.8-0.3,1.3-0.3c0.7,0,1.3,0.3,1.8,0.8
	c0.4,0.5,0.7,1.2,0.7,2v0.1c0,0.5-0.1,1-0.3,1.4c-0.2,0.4-0.5,0.7-0.8,1c-0.4,0.2-0.8,0.3-1.3,0.3c-0.7,0-1.3-0.3-1.8-0.8
	C253.6,101.1,253.4,100.4,253.4,99.5L253.4,99.5z M254.3,99.6c0,0.6,0.1,1.1,0.4,1.4c0.3,0.4,0.6,0.5,1.1,0.5c0.5,0,0.8-0.2,1.1-0.5
	c0.3-0.4,0.4-0.9,0.4-1.5c0-0.6-0.1-1.1-0.4-1.4c-0.3-0.4-0.6-0.5-1.1-0.5c-0.4,0-0.8,0.2-1.1,0.5C254.4,98.4,254.3,99,254.3,99.6z
	 M263.8,99.6c0,0.8-0.2,1.5-0.6,2c-0.4,0.5-0.9,0.7-1.5,0.7c-0.6,0-1.2-0.2-1.5-0.6v2.6h-0.9v-7.4h0.8l0,0.6
	c0.4-0.5,0.9-0.7,1.5-0.7c0.6,0,1.1,0.2,1.5,0.7C263.6,98,263.8,98.7,263.8,99.6L263.8,99.6z M262.9,99.5c0-0.6-0.1-1.1-0.4-1.4
	c-0.3-0.3-0.6-0.5-1.1-0.5c-0.5,0-1,0.2-1.2,0.7v2.5c0.3,0.5,0.7,0.7,1.2,0.7c0.4,0,0.8-0.2,1-0.5
	C262.8,100.7,262.9,100.2,262.9,99.5z M266.2,95.6v1.3h1v0.7h-1v3.3c0,0.2,0,0.4,0.1,0.5c0.1,0.1,0.2,0.2,0.5,0.2
	c0.1,0,0.2,0,0.4-0.1v0.7c-0.2,0.1-0.5,0.1-0.7,0.1c-0.4,0-0.7-0.1-0.9-0.4c-0.2-0.2-0.3-0.6-0.3-1v-3.3h-1v-0.7h1v-1.3H266.2z
	 M269.3,102.2h-0.9v-5.3h0.9V102.2z M268.3,95.5c0-0.1,0-0.3,0.1-0.4c0.1-0.1,0.2-0.2,0.4-0.2c0.2,0,0.3,0.1,0.4,0.2
	c0.1,0.1,0.1,0.2,0.1,0.4c0,0.1,0,0.3-0.1,0.4c-0.1,0.1-0.2,0.1-0.4,0.1c-0.2,0-0.3,0-0.4-0.1C268.3,95.8,268.3,95.6,268.3,95.5z
	 M270.5,99.5c0-0.5,0.1-1,0.3-1.4c0.2-0.4,0.5-0.7,0.9-1c0.4-0.2,0.8-0.3,1.3-0.3c0.7,0,1.3,0.3,1.8,0.8c0.4,0.5,0.7,1.2,0.7,2v0.1
	c0,0.5-0.1,1-0.3,1.4c-0.2,0.4-0.5,0.7-0.8,1c-0.4,0.2-0.8,0.3-1.3,0.3c-0.7,0-1.3-0.3-1.8-0.8C270.7,101.1,270.5,100.4,270.5,99.5
	L270.5,99.5z M271.4,99.6c0,0.6,0.1,1.1,0.4,1.4c0.3,0.4,0.6,0.5,1.1,0.5c0.5,0,0.8-0.2,1.1-0.5c0.3-0.4,0.4-0.9,0.4-1.5
	c0-0.6-0.1-1.1-0.4-1.4c-0.3-0.4-0.6-0.5-1.1-0.5c-0.4,0-0.8,0.2-1.1,0.5C271.5,98.4,271.4,99,271.4,99.6z M277.3,96.9l0,0.7
	c0.4-0.5,0.9-0.8,1.6-0.8c1.1,0,1.7,0.6,1.7,1.9v3.5h-0.9v-3.5c0-0.4-0.1-0.7-0.3-0.8c-0.2-0.2-0.4-0.3-0.8-0.3
	c-0.3,0-0.6,0.1-0.8,0.2c-0.2,0.2-0.4,0.4-0.5,0.6v3.8h-0.9v-5.3H277.3z M287.4,102.2h-0.9v-6.1l-1.8,0.7V96l2.6-1h0.1V102.2z"/>
<path class="st6" d="M264.5,147.5h-10.3V146l5.4-6c0.8-0.9,1.4-1.6,1.7-2.2c0.3-0.6,0.5-1.2,0.5-1.8c0-0.8-0.2-1.5-0.7-2
	c-0.5-0.5-1.2-0.8-2-0.8c-1,0-1.8,0.3-2.3,0.8c-0.5,0.6-0.8,1.3-0.8,2.3h-2c0-1.4,0.5-2.6,1.4-3.5c0.9-0.9,2.2-1.3,3.7-1.3
	c1.5,0,2.6,0.4,3.4,1.2c0.8,0.8,1.3,1.8,1.3,3c0,1.5-1,3.4-2.9,5.5l-4.2,4.5h7.9V147.5z M274.2,140.6c-0.4,0.5-0.9,0.9-1.5,1.2
	c-0.6,0.3-1.2,0.5-1.9,0.5c-0.9,0-1.7-0.2-2.4-0.7c-0.7-0.4-1.2-1.1-1.5-1.9c-0.4-0.8-0.5-1.7-0.5-2.7c0-1,0.2-2,0.6-2.8
	c0.4-0.8,1-1.5,1.7-1.9c0.7-0.4,1.6-0.7,2.6-0.7c1.5,0,2.8,0.6,3.7,1.7c0.9,1.2,1.3,2.7,1.3,4.7v0.6c0,3-0.6,5.3-1.8,6.7
	c-1.2,1.4-3,2.1-5.4,2.2h-0.4v-1.7h0.4c1.6,0,2.9-0.5,3.8-1.3C273.6,143.7,274.1,142.4,274.2,140.6z M271.1,140.6
	c0.7,0,1.3-0.2,1.8-0.6c0.6-0.4,1-0.9,1.2-1.5v-0.8c0-1.3-0.3-2.4-0.8-3.2c-0.6-0.8-1.3-1.2-2.2-1.2c-0.9,0-1.6,0.3-2.1,1
	c-0.5,0.7-0.8,1.5-0.8,2.6c0,1.1,0.3,1.9,0.8,2.6C269.6,140.2,270.3,140.6,271.1,140.6z M278.8,134.8c0-0.9,0.3-1.7,0.9-2.3
	c0.6-0.6,1.4-0.9,2.3-0.9c1,0,1.7,0.3,2.3,0.9c0.6,0.6,0.9,1.4,0.9,2.4v0.8c0,0.9-0.3,1.7-0.9,2.3c-0.6,0.6-1.4,0.9-2.3,0.9
	c-0.9,0-1.7-0.3-2.3-0.9c-0.6-0.6-0.9-1.4-0.9-2.4V134.8z M280.3,135.6c0,0.6,0.2,1,0.5,1.4c0.3,0.4,0.7,0.5,1.3,0.5
	c0.5,0,0.9-0.2,1.2-0.5c0.3-0.4,0.5-0.8,0.5-1.4v-0.8c0-0.6-0.2-1-0.5-1.4c-0.3-0.4-0.7-0.5-1.3-0.5s-0.9,0.2-1.3,0.5
	c-0.3,0.4-0.5,0.8-0.5,1.4V135.6z M286.4,143.6c0-0.9,0.3-1.7,0.9-2.3c0.6-0.6,1.4-0.9,2.3-0.9c0.9,0,1.7,0.3,2.3,0.9
	c0.6,0.6,0.9,1.4,0.9,2.4v0.8c0,0.9-0.3,1.7-0.9,2.3c-0.6,0.6-1.4,0.9-2.3,0.9c-0.9,0-1.7-0.3-2.3-0.9c-0.6-0.6-0.9-1.4-0.9-2.4
	V143.6z M287.9,144.5c0,0.6,0.2,1,0.5,1.4c0.3,0.4,0.7,0.5,1.3,0.5c0.5,0,0.9-0.2,1.2-0.5c0.3-0.4,0.5-0.8,0.5-1.5v-0.8
	c0-0.6-0.2-1-0.5-1.4c-0.3-0.4-0.7-0.5-1.2-0.5c-0.5,0-0.9,0.2-1.2,0.5c-0.3,0.4-0.5,0.8-0.5,1.4V144.5z M282.5,146.3l-1.1-0.7
	l7.6-12.2l1.1,0.7L282.5,146.3z"/>
<path class="st5" d="M253.4,162.1c0-0.5,0.1-1,0.3-1.4c0.2-0.4,0.5-0.7,0.9-1c0.4-0.2,0.8-0.3,1.3-0.3c0.7,0,1.3,0.3,1.8,0.8
	c0.4,0.5,0.7,1.2,0.7,2v0.1c0,0.5-0.1,1-0.3,1.4c-0.2,0.4-0.5,0.7-0.8,1c-0.4,0.2-0.8,0.3-1.3,0.3c-0.7,0-1.3-0.3-1.8-0.8
	C253.6,163.6,253.4,163,253.4,162.1L253.4,162.1z M254.3,162.2c0,0.6,0.1,1.1,0.4,1.4c0.3,0.4,0.6,0.5,1.1,0.5
	c0.5,0,0.8-0.2,1.1-0.5c0.3-0.4,0.4-0.9,0.4-1.5c0-0.6-0.1-1.1-0.4-1.4c-0.3-0.4-0.6-0.5-1.1-0.5c-0.4,0-0.8,0.2-1.1,0.5
	C254.4,161,254.3,161.5,254.3,162.2z M263.8,162.2c0,0.8-0.2,1.5-0.6,2c-0.4,0.5-0.9,0.7-1.5,0.7c-0.6,0-1.2-0.2-1.5-0.6v2.6h-0.9
	v-7.4h0.8l0,0.6c0.4-0.5,0.9-0.7,1.5-0.7c0.6,0,1.1,0.2,1.5,0.7C263.6,160.6,263.8,161.2,263.8,162.2L263.8,162.2z M262.9,162.1
	c0-0.6-0.1-1.1-0.4-1.4c-0.3-0.3-0.6-0.5-1.1-0.5c-0.5,0-1,0.2-1.2,0.7v2.5c0.3,0.5,0.7,0.7,1.2,0.7c0.4,0,0.8-0.2,1-0.5
	C262.8,163.3,262.9,162.7,262.9,162.1z M266.2,158.2v1.3h1v0.7h-1v3.3c0,0.2,0,0.4,0.1,0.5c0.1,0.1,0.2,0.2,0.5,0.2
	c0.1,0,0.2,0,0.4-0.1v0.7c-0.2,0.1-0.5,0.1-0.7,0.1c-0.4,0-0.7-0.1-0.9-0.4c-0.2-0.2-0.3-0.6-0.3-1v-3.3h-1v-0.7h1v-1.3H266.2z
	 M269.3,164.8h-0.9v-5.3h0.9V164.8z M268.3,158c0-0.1,0-0.3,0.1-0.4c0.1-0.1,0.2-0.2,0.4-0.2c0.2,0,0.3,0.1,0.4,0.2
	c0.1,0.1,0.1,0.2,0.1,0.4c0,0.1,0,0.3-0.1,0.4c-0.1,0.1-0.2,0.1-0.4,0.1c-0.2,0-0.3,0-0.4-0.1C268.3,158.3,268.3,158.2,268.3,158z
	 M270.5,162.1c0-0.5,0.1-1,0.3-1.4c0.2-0.4,0.5-0.7,0.9-1c0.4-0.2,0.8-0.3,1.3-0.3c0.7,0,1.3,0.3,1.8,0.8c0.4,0.5,0.7,1.2,0.7,2v0.1
	c0,0.5-0.1,1-0.3,1.4c-0.2,0.4-0.5,0.7-0.8,1c-0.4,0.2-0.8,0.3-1.3,0.3c-0.7,0-1.3-0.3-1.8-0.8C270.7,163.6,270.5,163,270.5,162.1
	L270.5,162.1z M271.4,162.2c0,0.6,0.1,1.1,0.4,1.4c0.3,0.4,0.6,0.5,1.1,0.5c0.5,0,0.8-0.2,1.1-0.5c0.3-0.4,0.4-0.9,0.4-1.5
	c0-0.6-0.1-1.1-0.4-1.4c-0.3-0.4-0.6-0.5-1.1-0.5c-0.4,0-0.8,0.2-1.1,0.5C271.5,161,271.4,161.5,271.4,162.2z M277.3,159.5l0,0.7
	c0.4-0.5,0.9-0.8,1.6-0.8c1.1,0,1.7,0.6,1.7,1.9v3.5h-0.9v-3.5c0-0.4-0.1-0.7-0.3-0.8c-0.2-0.2-0.4-0.3-0.8-0.3
	c-0.3,0-0.6,0.1-0.8,0.2c-0.2,0.2-0.4,0.4-0.5,0.6v3.8h-0.9v-5.3H277.3z M289.1,164.8h-4.7v-0.7l2.5-2.7c0.4-0.4,0.6-0.8,0.8-1
	c0.1-0.3,0.2-0.5,0.2-0.8c0-0.4-0.1-0.7-0.3-0.9c-0.2-0.2-0.5-0.4-0.9-0.4c-0.5,0-0.8,0.1-1.1,0.4c-0.2,0.3-0.4,0.6-0.4,1.1h-0.9
	c0-0.7,0.2-1.2,0.6-1.6c0.4-0.4,1-0.6,1.7-0.6c0.7,0,1.2,0.2,1.6,0.5c0.4,0.3,0.6,0.8,0.6,1.4c0,0.7-0.4,1.5-1.3,2.5l-1.9,2.1h3.6
	V164.8z"/>
<path class="st5" d="M117,35.7h-0.6v-4l-1.2,0.4v-0.5L117,31h0.1V35.7z M121.7,32.2c0,0.2-0.1,0.4-0.2,0.6c-0.1,0.2-0.3,0.3-0.5,0.4
	c0.2,0.1,0.4,0.3,0.6,0.5c0.1,0.2,0.2,0.4,0.2,0.7c0,0.4-0.1,0.7-0.4,1c-0.3,0.2-0.6,0.4-1.1,0.4c-0.5,0-0.8-0.1-1.1-0.4
	c-0.3-0.2-0.4-0.6-0.4-1c0-0.3,0.1-0.5,0.2-0.7c0.1-0.2,0.3-0.4,0.6-0.5c-0.2-0.1-0.4-0.2-0.5-0.4c-0.1-0.2-0.2-0.4-0.2-0.6
	c0-0.4,0.1-0.7,0.4-1c0.3-0.2,0.6-0.4,1-0.4c0.4,0,0.8,0.1,1,0.4C121.6,31.5,121.7,31.8,121.7,32.2z M121.2,34.4
	c0-0.3-0.1-0.5-0.3-0.7c-0.2-0.2-0.4-0.3-0.7-0.3c-0.3,0-0.5,0.1-0.7,0.2c-0.2,0.2-0.2,0.4-0.2,0.7c0,0.3,0.1,0.5,0.2,0.6
	c0.2,0.2,0.4,0.2,0.7,0.2c0.3,0,0.5-0.1,0.7-0.2C121.1,34.9,121.2,34.7,121.2,34.4z M120.3,31.4c-0.2,0-0.4,0.1-0.6,0.2
	c-0.1,0.1-0.2,0.3-0.2,0.6c0,0.2,0.1,0.4,0.2,0.6c0.1,0.1,0.3,0.2,0.6,0.2c0.2,0,0.4-0.1,0.6-0.2c0.1-0.2,0.2-0.3,0.2-0.6
	c0-0.2-0.1-0.4-0.2-0.6C120.7,31.5,120.5,31.4,120.3,31.4z M123.9,34h-1.6v-0.5h1.6V34z M127.6,35.7h-3.1v-0.4l1.6-1.8
	c0.2-0.3,0.4-0.5,0.5-0.7c0.1-0.2,0.1-0.4,0.1-0.5c0-0.2-0.1-0.5-0.2-0.6c-0.2-0.2-0.4-0.2-0.6-0.2c-0.3,0-0.5,0.1-0.7,0.3
	c-0.2,0.2-0.2,0.4-0.2,0.7h-0.6c0-0.4,0.1-0.8,0.4-1.1c0.3-0.3,0.7-0.4,1.1-0.4c0.4,0,0.8,0.1,1.1,0.4c0.3,0.2,0.4,0.5,0.4,0.9
	c0,0.5-0.3,1-0.9,1.7l-1.3,1.4h2.4V35.7z M130.8,34.1h0.7v0.5h-0.7v1.1h-0.6v-1.1H128v-0.4l2.1-3.3h0.6V34.1z M128.7,34.1h1.5v-2.3
	l-0.1,0.1L128.7,34.1z"/>
<path class="st5" d="M196.9,79.3h-3.1v-0.4l1.6-1.8c0.2-0.3,0.4-0.5,0.5-0.7c0.1-0.2,0.1-0.4,0.1-0.5c0-0.2-0.1-0.5-0.2-0.6
	c-0.2-0.2-0.4-0.2-0.6-0.2c-0.3,0-0.5,0.1-0.7,0.3c-0.2,0.2-0.2,0.4-0.2,0.7h-0.6c0-0.4,0.1-0.8,0.4-1.1c0.3-0.3,0.7-0.4,1.1-0.4
	c0.4,0,0.8,0.1,1.1,0.4c0.3,0.2,0.4,0.5,0.4,0.9c0,0.5-0.3,1-0.9,1.7l-1.3,1.4h2.4V79.3z M197.8,76.9l0.2-2.4h2.4v0.6h-1.9l-0.1,1.3
	c0.2-0.1,0.5-0.2,0.8-0.2c0.4,0,0.8,0.1,1,0.4c0.3,0.3,0.4,0.7,0.4,1.2c0,0.5-0.1,0.9-0.4,1.2c-0.3,0.3-0.6,0.4-1.1,0.4
	c-0.4,0-0.8-0.1-1-0.4c-0.3-0.2-0.4-0.6-0.5-1h0.6c0,0.3,0.1,0.5,0.3,0.6c0.2,0.1,0.4,0.2,0.6,0.2c0.3,0,0.5-0.1,0.7-0.3
	c0.2-0.2,0.2-0.5,0.2-0.8c0-0.3-0.1-0.6-0.3-0.8c-0.2-0.2-0.4-0.3-0.7-0.3c-0.3,0-0.5,0.1-0.6,0.2l-0.2,0.1L197.8,76.9z M202.6,77.5
	H201V77h1.6V77.5z M204,76.6h0.5c0.3,0,0.5-0.1,0.7-0.2c0.2-0.1,0.2-0.3,0.2-0.6c0-0.6-0.3-0.8-0.8-0.8c-0.3,0-0.5,0.1-0.6,0.2
	c-0.2,0.1-0.2,0.3-0.2,0.6h-0.6c0-0.4,0.1-0.7,0.4-0.9c0.3-0.3,0.6-0.4,1.1-0.4c0.4,0,0.8,0.1,1.1,0.4s0.4,0.6,0.4,1
	c0,0.2-0.1,0.4-0.2,0.6c-0.1,0.2-0.3,0.3-0.5,0.4c0.3,0.1,0.5,0.2,0.6,0.4c0.1,0.2,0.2,0.4,0.2,0.7c0,0.4-0.1,0.8-0.4,1
	c-0.3,0.3-0.6,0.4-1.1,0.4c-0.4,0-0.8-0.1-1.1-0.4c-0.3-0.2-0.4-0.6-0.4-1h0.6c0,0.3,0.1,0.5,0.2,0.6c0.2,0.2,0.4,0.2,0.7,0.2
	c0.3,0,0.5-0.1,0.7-0.2c0.2-0.2,0.2-0.4,0.2-0.7c0-0.3-0.1-0.5-0.3-0.6c-0.2-0.1-0.4-0.2-0.7-0.2H204V76.6z M209.5,77.7h0.7v0.5
	h-0.7v1.1h-0.6v-1.1h-2.2v-0.4l2.1-3.3h0.6V77.7z M207.4,77.7h1.5v-2.3l-0.1,0.1L207.4,77.7z"/>
<path class="st5" d="M194.7,149.8h0.5c0.3,0,0.5-0.1,0.7-0.2c0.2-0.1,0.2-0.3,0.2-0.6c0-0.6-0.3-0.8-0.8-0.8c-0.3,0-0.5,0.1-0.6,0.2
	c-0.2,0.1-0.2,0.3-0.2,0.6h-0.6c0-0.4,0.1-0.7,0.4-0.9c0.3-0.3,0.6-0.4,1.1-0.4c0.4,0,0.8,0.1,1.1,0.4s0.4,0.6,0.4,1
	c0,0.2-0.1,0.4-0.2,0.6c-0.1,0.2-0.3,0.3-0.5,0.4c0.3,0.1,0.5,0.2,0.6,0.4c0.1,0.2,0.2,0.4,0.2,0.7c0,0.4-0.1,0.8-0.4,1
	c-0.3,0.3-0.6,0.4-1.1,0.4c-0.4,0-0.8-0.1-1.1-0.4c-0.3-0.2-0.4-0.6-0.4-1h0.6c0,0.3,0.1,0.5,0.2,0.6c0.2,0.2,0.4,0.2,0.7,0.2
	c0.3,0,0.5-0.1,0.7-0.2c0.2-0.2,0.2-0.4,0.2-0.7c0-0.3-0.1-0.5-0.3-0.6c-0.2-0.1-0.4-0.2-0.7-0.2h-0.5V149.8z M197.8,150.1l0.2-2.4
	h2.4v0.6h-1.9l-0.1,1.3c0.2-0.1,0.5-0.2,0.8-0.2c0.4,0,0.8,0.1,1,0.4c0.3,0.3,0.4,0.7,0.4,1.2c0,0.5-0.1,0.9-0.4,1.2
	c-0.3,0.3-0.6,0.4-1.1,0.4c-0.4,0-0.8-0.1-1-0.4c-0.3-0.2-0.4-0.6-0.5-1h0.6c0,0.3,0.1,0.5,0.3,0.6c0.2,0.1,0.4,0.2,0.6,0.2
	c0.3,0,0.5-0.1,0.7-0.3c0.2-0.2,0.2-0.5,0.2-0.8c0-0.3-0.1-0.6-0.3-0.8c-0.2-0.2-0.4-0.3-0.7-0.3c-0.3,0-0.5,0.1-0.6,0.2l-0.2,0.1
	L197.8,150.1z M202.6,150.7H201v-0.5h1.6V150.7z M205.7,150.9h0.7v0.5h-0.7v1.1h-0.6v-1.1h-2.2V151l2.1-3.3h0.6V150.9z M203.6,150.9
	h1.5v-2.3l-0.1,0.1L203.6,150.9z M209.5,150.9h0.7v0.5h-0.7v1.1h-0.6v-1.1h-2.2V151l2.1-3.3h0.6V150.9z M207.4,150.9h1.5v-2.3
	l-0.1,0.1L207.4,150.9z"/>
<path class="st5" d="M117.6,198.4h0.7v0.5h-0.7v1.1H117v-1.1h-2.2v-0.4l2.1-3.3h0.6V198.4z M115.5,198.4h1.5V196l-0.1,0.1
	L115.5,198.4z M119.1,197.6l0.2-2.4h2.4v0.6h-1.9l-0.1,1.3c0.2-0.1,0.5-0.2,0.8-0.2c0.4,0,0.8,0.1,1,0.4c0.3,0.3,0.4,0.7,0.4,1.2
	c0,0.5-0.1,0.9-0.4,1.2c-0.3,0.3-0.6,0.4-1.1,0.4c-0.4,0-0.8-0.1-1-0.4c-0.3-0.2-0.4-0.6-0.5-1h0.6c0,0.3,0.1,0.5,0.3,0.6
	c0.2,0.1,0.4,0.2,0.6,0.2c0.3,0,0.5-0.1,0.7-0.3c0.2-0.2,0.2-0.5,0.2-0.8c0-0.3-0.1-0.6-0.3-0.8c-0.2-0.2-0.4-0.3-0.7-0.3
	c-0.3,0-0.5,0.1-0.6,0.2l-0.2,0.1L119.1,197.6z M123.9,198.2h-1.6v-0.5h1.6V198.2z M124.7,197.6l0.2-2.4h2.4v0.6h-1.9l-0.1,1.3
	c0.2-0.1,0.5-0.2,0.8-0.2c0.4,0,0.8,0.1,1,0.4c0.3,0.3,0.4,0.7,0.4,1.2c0,0.5-0.1,0.9-0.4,1.2c-0.3,0.3-0.6,0.4-1.1,0.4
	c-0.4,0-0.8-0.1-1-0.4c-0.3-0.2-0.4-0.6-0.5-1h0.6c0,0.3,0.1,0.5,0.3,0.6c0.2,0.1,0.4,0.2,0.6,0.2c0.3,0,0.5-0.1,0.7-0.3
	c0.2-0.2,0.2-0.5,0.2-0.8c0-0.3-0.1-0.6-0.3-0.8c-0.2-0.2-0.4-0.3-0.7-0.3c-0.3,0-0.5,0.1-0.6,0.2l-0.2,0.1L124.7,197.6z
	 M130.8,198.4h0.7v0.5h-0.7v1.1h-0.6v-1.1H128v-0.4l2.1-3.3h0.6V198.4z M128.7,198.4h1.5V196l-0.1,0.1L128.7,198.4z"/>
<path class="st5" d="M36.6,150.1l0.2-2.4h2.4v0.6h-1.9l-0.1,1.3c0.2-0.1,0.5-0.2,0.8-0.2c0.4,0,0.8,0.1,1,0.4
	c0.3,0.3,0.4,0.7,0.4,1.2c0,0.5-0.1,0.9-0.4,1.2c-0.3,0.3-0.6,0.4-1.1,0.4c-0.4,0-0.8-0.1-1-0.4c-0.3-0.2-0.4-0.6-0.5-1H37
	c0,0.3,0.1,0.5,0.3,0.6c0.2,0.1,0.4,0.2,0.6,0.2c0.3,0,0.5-0.1,0.7-0.3c0.2-0.2,0.2-0.5,0.2-0.8c0-0.3-0.1-0.6-0.3-0.8
	c-0.2-0.2-0.4-0.3-0.7-0.3c-0.3,0-0.5,0.1-0.6,0.2l-0.2,0.1L36.6,150.1z M40.4,150.1l0.2-2.4h2.4v0.6h-1.9l-0.1,1.3
	c0.2-0.1,0.5-0.2,0.8-0.2c0.4,0,0.8,0.1,1,0.4c0.3,0.3,0.4,0.7,0.4,1.2c0,0.5-0.1,0.9-0.4,1.2c-0.3,0.3-0.6,0.4-1.1,0.4
	c-0.4,0-0.8-0.1-1-0.4c-0.3-0.2-0.4-0.6-0.5-1h0.6c0,0.3,0.1,0.5,0.3,0.6c0.2,0.1,0.4,0.2,0.6,0.2c0.3,0,0.5-0.1,0.7-0.3
	c0.2-0.2,0.2-0.5,0.2-0.8c0-0.3-0.1-0.6-0.3-0.8c-0.2-0.2-0.4-0.3-0.7-0.3c-0.3,0-0.5,0.1-0.6,0.2l-0.2,0.1L40.4,150.1z M45.2,150.7
	h-1.6v-0.5h1.6V150.7z M48.1,147.7v0.5H48c-0.5,0-0.8,0.1-1.1,0.4c-0.3,0.3-0.4,0.7-0.5,1.1c0.3-0.3,0.6-0.4,1-0.4
	c0.4,0,0.7,0.1,1,0.4c0.2,0.3,0.4,0.7,0.4,1.1c0,0.5-0.1,0.9-0.4,1.2c-0.3,0.3-0.6,0.4-1.1,0.4c-0.5,0-0.8-0.2-1.1-0.5
	c-0.3-0.4-0.4-0.8-0.4-1.4v-0.2c0-0.9,0.2-1.5,0.6-2c0.4-0.5,0.9-0.7,1.7-0.7H48.1z M47.3,149.9c-0.2,0-0.4,0.1-0.6,0.2
	c-0.2,0.1-0.3,0.3-0.4,0.5v0.2c0,0.4,0.1,0.7,0.3,0.9c0.2,0.2,0.4,0.4,0.7,0.4c0.3,0,0.5-0.1,0.6-0.3c0.2-0.2,0.2-0.5,0.2-0.8
	c0-0.3-0.1-0.6-0.2-0.8C47.8,150,47.6,149.9,47.3,149.9z M52,150.9h0.7v0.5H52v1.1h-0.6v-1.1h-2.2V151l2.1-3.3H52V150.9z
	 M49.9,150.9h1.5v-2.3l-0.1,0.1L49.9,150.9z"/>
<path class="st5" d="M41.5,74.5v0.5h-0.1c-0.5,0-0.8,0.1-1.1,0.4c-0.3,0.3-0.4,0.7-0.5,1.1c0.3-0.3,0.6-0.4,1-0.4
	c0.4,0,0.7,0.1,1,0.4c0.2,0.3,0.4,0.7,0.4,1.1c0,0.5-0.1,0.9-0.4,1.2c-0.3,0.3-0.6,0.4-1.1,0.4c-0.5,0-0.8-0.2-1.1-0.5
	c-0.3-0.4-0.4-0.8-0.4-1.4v-0.2c0-0.9,0.2-1.5,0.6-2c0.4-0.5,0.9-0.7,1.7-0.7H41.5z M40.7,76.7c-0.2,0-0.4,0.1-0.6,0.2
	c-0.2,0.1-0.3,0.3-0.4,0.5v0.2c0,0.4,0.1,0.7,0.3,0.9c0.2,0.2,0.4,0.4,0.7,0.4c0.3,0,0.5-0.1,0.6-0.3c0.2-0.2,0.2-0.5,0.2-0.8
	c0-0.3-0.1-0.6-0.2-0.8C41.2,76.8,41,76.7,40.7,76.7z M43.2,76.9l0.2-2.4h2.4v0.6h-1.9l-0.1,1.3c0.2-0.1,0.5-0.2,0.8-0.2
	c0.4,0,0.8,0.1,1,0.4c0.3,0.3,0.4,0.7,0.4,1.2c0,0.5-0.1,0.9-0.4,1.2c-0.3,0.3-0.6,0.4-1.1,0.4c-0.4,0-0.8-0.1-1-0.4
	c-0.3-0.2-0.4-0.6-0.5-1h0.6c0,0.3,0.1,0.5,0.3,0.6c0.2,0.1,0.4,0.2,0.6,0.2c0.3,0,0.5-0.1,0.7-0.3c0.2-0.2,0.2-0.5,0.2-0.8
	c0-0.3-0.1-0.6-0.3-0.8c-0.2-0.2-0.4-0.3-0.7-0.3c-0.3,0-0.5,0.1-0.6,0.2L43.6,77L43.2,76.9z M48.4,76.8h1.3v0.6h-1.3v1.5h-0.6v-1.5
	h-1.3v-0.6h1.3v-1.4h0.6V76.8z"/>
</svg>
