<?xml version="1.0" encoding="utf-8"?>
<!-- Generator: Adobe Illustrator 24.1.2, SVG Export Plug-In . SVG Version: 6.00 Build 0)  -->
<svg version="1.1" id="Layer_1" xmlns="http://www.w3.org/2000/svg" xmlns:xlink="http://www.w3.org/1999/xlink" x="0px" y="0px"
	 viewBox="0 0 335 229" style="enable-background:new 0 0 335 229;" xml:space="preserve">
<style type="text/css">
	.st0{fill:#FFFFFF;}
	.st1{fill:#EEEEF7;}
	.st2{fill:#8794BA;}
	.st3{fill:#EF2A82;}
	.st4{fill:#0088F0;}
</style>
<g>
	<path class="st0" d="M17.5,0.4H319c9.3,0,16.8,7.5,16.8,16.8v195.4c0,9.3-7.5,16.8-16.8,16.8H17.5c-9.3,0-16.8-7.5-16.8-16.8V17.1
		C0.8,7.9,8.3,0.4,17.5,0.4z"/>
</g>
<rect x="56.1" y="40.6" class="st1" width="0.6" height="151.3"/>
<rect x="91.2" y="40.6" class="st1" width="0.6" height="151.3"/>
<rect x="126.4" y="40.6" class="st1" width="0.6" height="151.3"/>
<rect x="161.6" y="40.6" class="st1" width="0.6" height="151.3"/>
<rect x="196.8" y="40.6" class="st1" width="0.6" height="151.3"/>
<rect x="231.9" y="40.6" class="st1" width="0.6" height="151.3"/>
<rect x="267.1" y="40.6" class="st1" width="0.6" height="151.3"/>
<rect x="302.3" y="40.6" class="st1" width="0.6" height="151.3"/>
<path class="st2" d="M33.4,51.9l0.2-2.4h2.4v0.6h-1.9L34,51.4c0.2-0.1,0.5-0.2,0.8-0.2c0.4,0,0.8,0.1,1,0.4c0.3,0.3,0.4,0.7,0.4,1.2
	c0,0.5-0.1,0.9-0.4,1.2c-0.3,0.3-0.6,0.4-1.1,0.4c-0.4,0-0.8-0.1-1-0.4c-0.3-0.2-0.4-0.6-0.5-1h0.6c0,0.3,0.1,0.5,0.3,0.6
	c0.2,0.1,0.4,0.2,0.6,0.2c0.3,0,0.5-0.1,0.7-0.3c0.2-0.2,0.2-0.5,0.2-0.8c0-0.3-0.1-0.6-0.3-0.8c-0.2-0.2-0.4-0.3-0.7-0.3
	c-0.3,0-0.5,0.1-0.6,0.2L33.9,52L33.4,51.9z M39.4,52.7h0.7v0.5h-0.7v1.1h-0.6v-1.1h-2.2v-0.4l2.1-3.3h0.6V52.7z M37.3,52.7h1.5
	v-2.3l-0.1,0.1L37.3,52.7z M42,52.5h-1.6V52H42V52.5z M44.9,49.5V50h-0.1c-0.5,0-0.8,0.1-1.1,0.4c-0.3,0.3-0.4,0.7-0.5,1.1
	c0.3-0.3,0.6-0.4,1-0.4c0.4,0,0.7,0.1,1,0.4c0.2,0.3,0.4,0.7,0.4,1.1c0,0.5-0.1,0.9-0.4,1.2c-0.3,0.3-0.6,0.4-1.1,0.4
	c-0.5,0-0.8-0.2-1.1-0.5c-0.3-0.4-0.4-0.8-0.4-1.4v-0.2c0-0.9,0.2-1.5,0.6-2c0.4-0.5,0.9-0.7,1.7-0.7H44.9z M44.1,51.7
	c-0.2,0-0.4,0.1-0.6,0.2c-0.2,0.1-0.3,0.3-0.4,0.5v0.2c0,0.4,0.1,0.7,0.3,0.9c0.2,0.2,0.4,0.4,0.7,0.4c0.3,0,0.5-0.1,0.6-0.3
	c0.2-0.2,0.2-0.5,0.2-0.8c0-0.3-0.1-0.6-0.2-0.8C44.5,51.8,44.3,51.7,44.1,51.7z M46.5,51.9l0.2-2.4h2.4v0.6h-1.9l-0.1,1.3
	c0.2-0.1,0.5-0.2,0.8-0.2c0.4,0,0.8,0.1,1,0.4c0.3,0.3,0.4,0.7,0.4,1.2c0,0.5-0.1,0.9-0.4,1.2c-0.3,0.3-0.6,0.4-1.1,0.4
	c-0.4,0-0.8-0.1-1-0.4c-0.3-0.2-0.4-0.6-0.5-1h0.6c0,0.3,0.1,0.5,0.3,0.6c0.2,0.1,0.4,0.2,0.6,0.2c0.3,0,0.5-0.1,0.7-0.3
	c0.2-0.2,0.2-0.5,0.2-0.8c0-0.3-0.1-0.6-0.3-0.8c-0.2-0.2-0.4-0.3-0.7-0.3c-0.3,0-0.5,0.1-0.6,0.2L47,52L46.5,51.9z"/>
<path class="st2" d="M35.7,84h0.7v0.5h-0.7v1.1h-0.6v-1.1h-2.2v-0.4l2.1-3.3h0.6V84z M33.6,84h1.5v-2.3L35,81.8L33.6,84z M37.2,83.2
	l0.2-2.4h2.4v0.6h-1.9l-0.1,1.3c0.2-0.1,0.5-0.2,0.8-0.2c0.4,0,0.8,0.1,1,0.4c0.3,0.3,0.4,0.7,0.4,1.2c0,0.5-0.1,0.9-0.4,1.2
	c-0.3,0.3-0.6,0.4-1.1,0.4c-0.4,0-0.8-0.1-1-0.3c-0.3-0.2-0.4-0.6-0.5-1h0.6c0,0.3,0.1,0.5,0.3,0.6c0.2,0.1,0.4,0.2,0.6,0.2
	c0.3,0,0.5-0.1,0.7-0.3c0.2-0.2,0.2-0.5,0.2-0.8c0-0.3-0.1-0.6-0.3-0.8c-0.2-0.2-0.4-0.3-0.7-0.3c-0.3,0-0.5,0.1-0.6,0.2l-0.2,0.1
	L37.2,83.2z M42,83.8h-1.6v-0.5H42V83.8z M42.8,83.2l0.2-2.4h2.4v0.6h-1.9l-0.1,1.3c0.2-0.1,0.5-0.2,0.8-0.2c0.4,0,0.8,0.1,1,0.4
	c0.3,0.3,0.4,0.7,0.4,1.2c0,0.5-0.1,0.9-0.4,1.2c-0.3,0.3-0.6,0.4-1.1,0.4c-0.4,0-0.8-0.1-1-0.3c-0.3-0.2-0.4-0.6-0.5-1h0.6
	c0,0.3,0.1,0.5,0.3,0.6c0.2,0.1,0.4,0.2,0.6,0.2c0.3,0,0.5-0.1,0.7-0.3c0.2-0.2,0.2-0.5,0.2-0.8c0-0.3-0.1-0.6-0.3-0.8
	C44.6,83.1,44.3,83,44,83c-0.3,0-0.5,0.1-0.6,0.2l-0.2,0.1L42.8,83.2z M48.8,84h0.7v0.5h-0.7v1.1h-0.6v-1.1H46v-0.4l2.1-3.3h0.6V84z
	 M46.7,84h1.5v-2.3l-0.1,0.1L46.7,84z"/>
<path class="st2" d="M34,114.1h0.5c0.3,0,0.5-0.1,0.7-0.2c0.2-0.1,0.2-0.3,0.2-0.6c0-0.6-0.3-0.8-0.8-0.8c-0.3,0-0.5,0.1-0.6,0.2
	c-0.2,0.1-0.2,0.3-0.2,0.6h-0.6c0-0.4,0.1-0.7,0.4-0.9c0.3-0.3,0.6-0.4,1.1-0.4c0.4,0,0.8,0.1,1.1,0.4c0.3,0.2,0.4,0.6,0.4,1
	c0,0.2-0.1,0.4-0.2,0.6c-0.1,0.2-0.3,0.3-0.5,0.4c0.3,0.1,0.5,0.2,0.6,0.4c0.1,0.2,0.2,0.4,0.2,0.7c0,0.4-0.1,0.8-0.4,1
	c-0.3,0.3-0.6,0.4-1.1,0.4c-0.4,0-0.8-0.1-1.1-0.4c-0.3-0.2-0.4-0.6-0.4-1h0.6c0,0.3,0.1,0.5,0.2,0.6c0.2,0.1,0.4,0.2,0.7,0.2
	c0.3,0,0.5-0.1,0.7-0.2c0.2-0.2,0.2-0.4,0.2-0.7c0-0.3-0.1-0.5-0.3-0.6c-0.2-0.1-0.4-0.2-0.7-0.2H34V114.1z M37.2,114.4l0.2-2.4h2.4
	v0.6h-1.9l-0.1,1.3c0.2-0.1,0.5-0.2,0.8-0.2c0.4,0,0.8,0.1,1,0.4c0.3,0.3,0.4,0.7,0.4,1.2c0,0.5-0.1,0.9-0.4,1.2
	c-0.3,0.3-0.6,0.4-1.1,0.4c-0.4,0-0.8-0.1-1-0.3c-0.3-0.2-0.4-0.6-0.5-1h0.6c0,0.3,0.1,0.5,0.3,0.6c0.2,0.1,0.4,0.2,0.6,0.2
	c0.3,0,0.5-0.1,0.7-0.3c0.2-0.2,0.2-0.5,0.2-0.8c0-0.3-0.1-0.6-0.3-0.8c-0.2-0.2-0.4-0.3-0.7-0.3c-0.3,0-0.5,0.1-0.6,0.2l-0.2,0.1
	L37.2,114.4z M42,115h-1.6v-0.5H42V115z M45,115.2h0.7v0.5H45v1.1h-0.6v-1.1h-2.2v-0.4l2.1-3.3H45V115.2z M43,115.2h1.5v-2.3
	l-0.1,0.1L43,115.2z M48.8,115.2h0.7v0.5h-0.7v1.1h-0.6v-1.1H46v-0.4l2.1-3.3h0.6V115.2z M46.7,115.2h1.5v-2.3l-0.1,0.1L46.7,115.2z
	"/>
<path class="st2" d="M36.2,148.1h-3.1v-0.4l1.6-1.8c0.2-0.3,0.4-0.5,0.5-0.7c0.1-0.2,0.1-0.4,0.1-0.5c0-0.2-0.1-0.5-0.2-0.6
	c-0.2-0.2-0.4-0.2-0.6-0.2c-0.3,0-0.5,0.1-0.7,0.3c-0.2,0.2-0.2,0.4-0.2,0.7H33c0-0.4,0.1-0.8,0.4-1.1c0.3-0.3,0.7-0.4,1.1-0.4
	c0.4,0,0.8,0.1,1.1,0.4c0.3,0.2,0.4,0.5,0.4,0.9c0,0.5-0.3,1-0.9,1.7l-1.3,1.4h2.4V148.1z M37.2,145.7l0.2-2.4h2.4v0.6h-1.9
	l-0.1,1.3c0.2-0.1,0.5-0.2,0.8-0.2c0.4,0,0.8,0.1,1,0.4c0.3,0.3,0.4,0.7,0.4,1.2c0,0.5-0.1,0.9-0.4,1.2c-0.3,0.3-0.6,0.4-1.1,0.4
	c-0.4,0-0.8-0.1-1-0.4c-0.3-0.2-0.4-0.6-0.5-1h0.6c0,0.3,0.1,0.5,0.3,0.6c0.2,0.1,0.4,0.2,0.6,0.2c0.3,0,0.5-0.1,0.7-0.3
	c0.2-0.2,0.2-0.5,0.2-0.8c0-0.3-0.1-0.6-0.3-0.8c-0.2-0.2-0.4-0.3-0.7-0.3c-0.3,0-0.5,0.1-0.6,0.2l-0.2,0.1L37.2,145.7z M42,146.3
	h-1.6v-0.5H42V146.3z M43.4,145.4h0.5c0.3,0,0.5-0.1,0.7-0.2c0.2-0.1,0.2-0.3,0.2-0.6c0-0.6-0.3-0.8-0.8-0.8c-0.3,0-0.5,0.1-0.6,0.2
	c-0.2,0.1-0.2,0.3-0.2,0.6h-0.6c0-0.4,0.1-0.7,0.4-0.9c0.3-0.3,0.6-0.4,1.1-0.4c0.4,0,0.8,0.1,1.1,0.4c0.3,0.2,0.4,0.6,0.4,1
	c0,0.2-0.1,0.4-0.2,0.6c-0.1,0.2-0.3,0.3-0.5,0.4c0.3,0.1,0.5,0.2,0.6,0.4c0.1,0.2,0.2,0.4,0.2,0.7c0,0.4-0.1,0.8-0.4,1
	c-0.3,0.3-0.6,0.4-1.1,0.4c-0.4,0-0.8-0.1-1.1-0.4c-0.3-0.2-0.4-0.6-0.4-1H43c0,0.3,0.1,0.5,0.2,0.6c0.2,0.2,0.4,0.2,0.7,0.2
	c0.3,0,0.5-0.1,0.7-0.2c0.2-0.2,0.2-0.4,0.2-0.7c0-0.3-0.1-0.5-0.3-0.6c-0.2-0.1-0.4-0.2-0.7-0.2h-0.5V145.4z M48.8,146.5h0.7v0.5
	h-0.7v1.1h-0.6V147H46v-0.4l2.1-3.3h0.6V146.5z M46.7,146.5h1.5v-2.3l-0.1,0.1L46.7,146.5z"/>
<path class="st2" d="M35.1,179.4h-0.6v-4l-1.2,0.4v-0.6l1.7-0.7h0.1V179.4z M39.8,175.8c0,0.2-0.1,0.4-0.2,0.6
	c-0.1,0.2-0.3,0.3-0.5,0.4c0.2,0.1,0.4,0.3,0.6,0.5c0.1,0.2,0.2,0.4,0.2,0.7c0,0.4-0.1,0.7-0.4,1c-0.3,0.2-0.6,0.4-1.1,0.4
	c-0.5,0-0.8-0.1-1.1-0.4c-0.3-0.2-0.4-0.6-0.4-1c0-0.3,0.1-0.5,0.2-0.7c0.1-0.2,0.3-0.4,0.6-0.5c-0.2-0.1-0.4-0.3-0.5-0.4
	c-0.1-0.2-0.2-0.4-0.2-0.6c0-0.4,0.1-0.7,0.4-1c0.3-0.2,0.6-0.4,1-0.4c0.4,0,0.8,0.1,1,0.4C39.6,175.1,39.8,175.4,39.8,175.8z
	 M39.3,178.1c0-0.3-0.1-0.5-0.3-0.7c-0.2-0.2-0.4-0.3-0.7-0.3c-0.3,0-0.5,0.1-0.7,0.2c-0.2,0.2-0.2,0.4-0.2,0.7
	c0,0.3,0.1,0.5,0.2,0.6c0.2,0.2,0.4,0.2,0.7,0.2c0.3,0,0.5-0.1,0.7-0.2C39.2,178.5,39.3,178.3,39.3,178.1z M38.4,175
	c-0.2,0-0.4,0.1-0.6,0.2c-0.1,0.1-0.2,0.3-0.2,0.6c0,0.2,0.1,0.4,0.2,0.6c0.1,0.1,0.3,0.2,0.6,0.2s0.4-0.1,0.6-0.2
	c0.1-0.2,0.2-0.3,0.2-0.6s-0.1-0.4-0.2-0.6C38.8,175.1,38.6,175,38.4,175z M42,177.6h-1.6v-0.5H42V177.6z M45.6,179.4h-3.1v-0.4
	l1.6-1.8c0.2-0.3,0.4-0.5,0.5-0.7c0.1-0.2,0.1-0.4,0.1-0.5c0-0.2-0.1-0.5-0.2-0.6c-0.2-0.2-0.4-0.2-0.6-0.2c-0.3,0-0.5,0.1-0.7,0.3
	c-0.2,0.2-0.2,0.4-0.2,0.7h-0.6c0-0.4,0.1-0.8,0.4-1.1c0.3-0.3,0.7-0.4,1.1-0.4c0.4,0,0.8,0.1,1.1,0.4c0.3,0.2,0.4,0.5,0.4,0.9
	c0,0.5-0.3,1-0.9,1.7l-1.3,1.4h2.4V179.4z M48.8,177.8h0.7v0.5h-0.7v1.1h-0.6v-1.1H46v-0.4l2.1-3.3h0.6V177.8z M46.7,177.8h1.5v-2.3
	l-0.1,0.1L46.7,177.8z"/>
<path class="st3" d="M56.1,44.5h143.2c1.7,0,3.1,1.4,3.1,3.1c0,1.7-1.4,3.1-3.1,3.1H56.1V44.5z"/>
<path class="st3" d="M56.1,76.3h94.6c1.7,0,3.1,1.4,3.1,3.1c0,1.7-1.4,3.1-3.1,3.1H56.1V76.3z"/>
<path class="st3" d="M56.1,108.2h5.9c1.7,0,3.1,1.4,3.1,3.1s-1.4,3.1-3.1,3.1h-5.9V108.2z"/>
<path class="st3" d="M56.1,140h23.7c1.7,0,3.1,1.4,3.1,3.1s-1.4,3.1-3.1,3.1H56.1V140z"/>
<path class="st3" d="M56.1,171.8h113.1c1.7,0,3.1,1.4,3.1,3.1s-1.4,3.1-3.1,3.1H56.1V171.8z"/>
<path class="st4" d="M56.1,52.3h79.6c1.7,0,3.1,1.4,3.1,3.1s-1.4,3.1-3.1,3.1H56.1V52.3z"/>
<path class="st4" d="M56.1,84.1h113.1c1.7,0,3.1,1.4,3.1,3.1c0,1.7-1.4,3.1-3.1,3.1H56.1V84.1z"/>
<path class="st4" d="M56.1,116h23.7c1.7,0,3.1,1.4,3.1,3.1s-1.4,3.1-3.1,3.1H56.1V116z"/>
<path class="st4" d="M56.1,147.8h186.2c1.7,0,3.1,1.4,3.1,3.1c0,1.7-1.4,3.1-3.1,3.1H56.1V147.8z"/>
<path class="st4" d="M56.1,179.6h218c1.7,0,3.1,1.4,3.1,3.1c0,1.7-1.4,3.1-3.1,3.1h-218V179.6z"/>
</svg>
