<?xml version="1.0" encoding="utf-8"?>
<!-- Generator: Adobe Illustrator 24.1.2, SVG Export Plug-In . SVG Version: 6.00 Build 0)  -->
<svg version="1.1" id="Layer_1" xmlns="http://www.w3.org/2000/svg" xmlns:xlink="http://www.w3.org/1999/xlink" x="0px" y="0px"
	 viewBox="0 0 1438 1438" style="enable-background:new 0 0 1438 1438;" xml:space="preserve">
<style type="text/css">
	.st0{opacity:7.000000e-02;}
	.st1{fill:#8794BA;}
</style>
<g class="st0">
	<path class="st1" d="M1312.5,313C1183,124,965.5,0,719.1,0C322,0,0.1,321.9,0.1,719c0,57.8,6.8,114,19.7,167.8l366.1-366.1
		c35.1-35.1,92-35.1,127.1,0l295.9,295.9L1312.5,313z"/>
	<path class="st1" d="M1398,481.8l-525.5,525.5c-35.1,35.1-92,35.1-127.1,0L449.4,711.3L91.2,1069.6
		c123,219.8,358.1,368.4,627.9,368.4c397.1,0,719-321.9,719-719C1438.1,635.9,1424,556,1398,481.8z"/>
</g>
</svg>
